<svg xmlns="http://www.w3.org/2000/svg" viewBox="0 0 600.32 149.29">
  <defs>
    <style>
      .cls-1{fill:#4a4a4a;}
      .cls-1,.cls-2,.cls-4{opacity:0.2;isolation:isolate;}
      .cls-2,.cls-4{fill:none;stroke:#4a4a4a;}
      .cls-2{stroke-width:0.65px;}
      .cls-3{fill:#fff;}
      .cls-4{stroke-width:0.03px;}
    </style></defs><title>harvard</title><g id="Layer_2" data-name="Layer 2"><g id="layer"><path class="cls-1" d="M242.32,103.22c0-1.3-.8-2.2-2.5-2.6v-.8c.9,0,4.1.1,4.9.1s3.8-.1,4.7-.1v.8a2.53,2.53,0,0,0-2.4,2.6v16c0,5.1,2.8,7.9,8.7,7.9,5,0,9-2.2,9-7.6V103c0-1.2-.7-2.1-2.6-2.5v-.8c.7,0,3.3.1,4.1.1s3.5-.1,4.2-.1v.8c-1.8.4-2.6,1.2-2.6,2.5v15.6c0,7-4.1,11-12.9,11-8.2,0-12.5-3.7-12.5-10.3Z"/><path class="cls-1" d="M277.52,128.52c1.9-.4,2.7-1.3,2.7-2.5v-22.1c0-1.9-1-2.7-2.7-3.2v-.8c1,.1,2.6.1,3.4.1a24.37,24.37,0,0,0,2.7-.1l19.3,22.6v-19.3c0-1.2-.7-2.1-2.6-2.5v-.8c.7,0,3.2.1,4.1.1.7,0,3.4-.1,4.1-.1v.8c-1.8.4-2.7,1.2-2.7,2.5v26.6h-1.2c-.7-.2-2.1-1-4.2-3.3l-17.3-20V126c0,1.2.7,2.1,2.6,2.5v.8c-.7,0-3.2-.1-4.1-.1-.7,0-3.4.1-4.1.1v-.8Z"/><path class="cls-1" d="M429.92,122.52h.8a7,7,0,0,0,2.7,4,9,9,0,0,0,5.3,1.4c3.9,0,6.4-1.9,6.4-4.9s-3.2-4.8-6.9-6.7c-2.8-1.4-8.3-3.7-8.3-9,0-5,3.8-8,9.9-8,4,0,5.9,1,8.6.8l-.1,6h-.8c-1.1-3.5-4.3-4.8-7.8-4.8-4,0-5.4,2.2-5.4,4.5,0,3.3,3.2,4.9,6.9,6.5,4.1,1.8,8.6,4.1,8.6,9.2,0,4.8-3.8,8.4-10.8,8.4-4.1,0-6.6-1.2-8.8-1.5Z"/><path class="cls-1" d="M517.52,115.92v10a2.29,2.29,0,0,0,.8,1.7,2.46,2.46,0,0,0,1.7.8v.8c-1,0-4.1-.1-5-.1-.7,0-3.7.1-4.9.1v-.7a3,3,0,0,0,1.7-.8,2.46,2.46,0,0,0,.8-1.7v-9.6Zm-4.5,1.2-7.9-12.5c-1.3-2.2-2.4-3.4-3.9-3.9v-.8c1.1,0,4,.1,4.8.1s3.9-.1,5-.1v.8c-1,.2-1.5.7-1.5,1.4a5,5,0,0,0,.9,2.3l5.8,9.6,5.6-9.6a7.71,7.71,0,0,0,1-2.5c0-.6-.4-1-1.4-1.2v-.8c.9,0,2.9.1,3.6.1s2.9-.1,3.9-.1v.7c-2.2.9-3.5,2.8-4.8,4.9l-7.2,11.9"/><path class="cls-1" d="M366.82,99.92h18.4a7.61,7.61,0,0,0,2.1-.3h.8l-.1,5.9h-.8c-.7-1.9-1.4-3.4-5-3.4h-8v10.4h6.2a22.86,22.86,0,0,0,2.5-.2,2.92,2.92,0,0,0,2.3-2.3h.8c-.1.9-.1,3-.1,3.6s.1,2.8.1,3.7h-.8c-.4-1.2-.9-2.1-2.2-2.4a10.14,10.14,0,0,0-2.5-.2h-6.2v12.2H383c3.8,0,4.9-1.6,5.9-3.8l.8.2-.8,6.1a66.57,66.57,0,0,0-7.7-.2H372c-.9,0-4.1.1-5.1.1v-.8c1.7-.3,2.6-1.1,2.6-2.7v-22.5c0-1.4-.7-2.3-2.6-2.6Z"/><path class="cls-1" d="M319.72,103.42c0-1.5-.9-2.3-2.7-2.7v-.8c1,0,4.2.1,5.1.1s4.1-.1,5.1-.1v.8c-1.8.4-2.7,1.1-2.7,2.7v22.4c0,1.5.9,2.3,2.7,2.7v.8c-1,0-4.2-.1-5.1-.1s-4.1.1-5.1.1v-.8c1.8-.3,2.7-1.1,2.7-2.7Z"/><path class="cls-1" d="M459.62,103.42c0-1.5-.9-2.3-2.7-2.7v-.8c1,0,4.2.1,5.1.1.7,0,4.1-.1,5.1-.1v.8c-1.8.4-2.7,1.1-2.7,2.7v22.4c0,1.5.9,2.3,2.7,2.7v.8c-1,0-4.1-.1-5.1-.1-.7,0-4.1.1-5.1.1v-.8c1.8-.3,2.7-1.1,2.7-2.7Z"/><path class="cls-1" d="M485.22,100c-10.1,0-11.7-.2-13.8-.3v6.1h.8c.7-2.7,2.2-3.3,4.2-3.3h6.3v23.4c0,1.6-.9,2.4-2.7,2.7v.8c1,0,4.4-.1,5.1-.1.9,0,4.1.1,5.1.1v-.9c-1.8-.4-2.7-1.2-2.7-2.7v-23.4h6.3c2,0,3.5.7,4.2,3.3h.8v-6.1c-1.9.2-3.5.4-13.6.4"/><path class="cls-1" d="M404.62,113.82c1.2.1,2.5.2,3.7.2,5.5,0,7.3-3.2,7.3-6,0-4-2.7-6.4-7.5-6.4a20.68,20.68,0,0,0-3.5.3Zm0,12c0,1.5,1,2.3,2.7,2.7v.8c-1,0-4.2-.1-5.1-.1s-3.9.1-4.9.1v-.8c1.7-.3,2.6-1.1,2.6-2.7v-22.6c0-1.4-.7-2.2-2.6-2.6v-.8c1,0,4.1.1,5,.1,1.4,0,5.6-.2,7.2-.2,7.1,0,11,2.9,11,7.9,0,3.9-2.9,6.6-7.5,7.7a9.09,9.09,0,0,1,2.1,1.8c1.2,1.5,4.6,6.3,6,8s3.2,3.6,5.1,3.7v.7a20.85,20.85,0,0,1-3.5.4,7.43,7.43,0,0,1-6.2-3.1c-1.6-2-4.4-6-6-8.1a5.78,5.78,0,0,0-2-1.8,6.22,6.22,0,0,0-2.6-.9c-.4-.1-.9-.1-1.4-.2Z"/><path class="cls-1" d="M334.32,103.52a4.63,4.63,0,0,0-1.3-1.8,5.38,5.38,0,0,0-2-1v-.8c1.1,0,4.7.1,5.5.1s3.9-.1,5-.1v.8c-1,.2-2.1.7-2.1,1.7a10.42,10.42,0,0,0,1.2,3.4l7.6,17.3,7.2-17.3a12.6,12.6,0,0,0,1-3.3c0-.9-.8-1.5-2-1.8v-.8c1,0,3.3.1,4,.1s3.4-.1,4.5-.1v.8c-1.8.5-2.9,1.5-3.9,3.8l-10.6,24.9H346Z"/><path class="cls-1" d="M361.62,24.92a8.66,8.66,0,0,0-6.3-5.4v-1.6c2,0,8.6.2,10.1.2s7.8-.2,9.8-.2v1.5c-1.8.4-3.9,1.4-3.9,3.2,0,1.3.8,3.1,2.3,6.5l14.5,32.7L401.82,29c1.1-2.7,1.9-4.7,1.9-6.3s-1.6-2.9-3.9-3.4v-1.5c1.8,0,6.2.2,7.6.2s6.5-.2,8.5-.2v1.5c-3.4.9-5.5,2.9-7.4,7.3l-20.2,47.3h-4.5Z"/><path class="cls-1" d="M166.62,72.22c2.6-.6,4.5-1.8,4.5-4.8V24.12c0-2.9-1.7-4-4.5-4.7v-1.5c1.4,0,7.3.2,8.8.2,1.7,0,7.9-.2,9.3-.2v1.5c-2.6.6-4.6,1.8-4.6,4.7v18.1h32.4V24.12c0-3-1.7-4.1-4.5-4.7v-1.5c1.4,0,7.5.2,9.2.2,1.4,0,7.5-.2,8.9-.2v1.5c-2.6.6-4.6,1.8-4.6,4.7v43.4c0,2.8,1.8,4,4.6,4.8v1.4c-1.4,0-7.5-.1-8.9-.1-1.7,0-7.8.1-9.2.1v-1.4c2.6-.6,4.5-1.8,4.5-4.8V47H180v20.5c0,3,1.8,4,4.6,4.8v1.4c-1.4,0-7.6-.1-9.3-.1-1.4,0-7.4.1-8.8.1v-1.5Z"/><path class="cls-1" d="M556.32,69.32a64,64,0,0,0,8.8.6c16.8,0,25.5-10,25.5-24,0-14.5-9.2-24.7-24.9-24.7a74.16,74.16,0,0,0-9.4.6v47.5Zm-14.2,2.9c3.4-.6,5.2-1.9,5.2-5V24.12c0-3-1.8-4.1-5.1-4.7v-1.6c1.9,0,8,.2,9.7.2,2.7,0,10.3-.6,16.3-.6,20,0,32.1,11.1,32.1,27.9,0,16.4-12.6,28.5-33.2,28.5-5.9,0-13-.5-15.7-.5-1.7,0-7.4.2-9.2.2Z"/><path class="cls-1" d="M316,44.32a41,41,0,0,0,7,.3c10.5,0,13.8-6,13.8-11.3,0-7.5-5.1-12.2-14.3-12.2a36.83,36.83,0,0,0-6.6.6v22.6Zm0,22.8c0,2.9,1.8,4.5,5.2,5.1v1.5c-1.9,0-8-.2-9.7-.2-1.5,0-7.5.2-9.4.2v-1.5c3.1-.6,5-2.1,5-5.1V24.32c0-2.6-1.4-4.3-5-4.9v-1.5c1.9,0,7.8.2,9.5.2,2.7,0,10.5-.5,13.6-.5,13.4,0,20.9,5.5,20.9,15,0,7.4-5.6,12.5-14.1,14.5a15.92,15.92,0,0,1,3.9,3.4c2.4,2.8,8.9,12.1,11.6,15.3s6,6.8,9.7,6.9V74a37,37,0,0,1-6.6.7c-4.6,0-8.2-1.6-11.8-5.9-3.1-3.7-8.4-11.6-11.4-15.4a11.25,11.25,0,0,0-3.8-3.4,13.79,13.79,0,0,0-4.8-1.7c-.9-.1-1.7-.3-2.6-.4Z"/><path class="cls-1" d="M493,44.32a41,41,0,0,0,7,.3c10.5,0,13.8-6,13.8-11.3,0-7.5-5.1-12.2-14.2-12.2a36.83,36.83,0,0,0-6.6.6Zm0,22.8c0,2.9,1.8,4.5,5.2,5.1v1.5c-1.9,0-8-.2-9.7-.2-1.5,0-7.5.2-9.4.2v-1.5c3.1-.6,5-2.1,5-5.1V24.32c0-2.6-1.4-4.3-4.9-4.9v-1.5c1.9,0,7.8.2,9.5.2,2.8,0,10.5-.5,13.6-.5,13.4,0,20.9,5.5,20.9,15,0,7.4-5.6,12.5-14.1,14.5a15.92,15.92,0,0,1,3.9,3.4c2.4,2.8,9,12.1,11.6,15.3s6,6.8,9.6,6.9V74a37,37,0,0,1-6.6.7c-4.6,0-8.2-1.6-11.8-5.9-3-3.7-8.4-11.6-11.4-15.4a11.25,11.25,0,0,0-3.8-3.4,13.79,13.79,0,0,0-4.8-1.7c-.9-.1-1.7-.3-2.6-.4Z"/><path class="cls-1" d="M270.42,51.32l-9-20.7-8.3,20.7Zm-35.8,20.9c3.6-.8,5.5-3.1,6.8-6.2l18-43a56,56,0,0,0,1.7-5.4h5a48.06,48.06,0,0,0,1.6,5.4l19,43.1c1.4,3,2.8,5.1,6.6,6.1v1.4c-2.1,0-8.5-.1-9.9-.1s-7.5.1-9.6.1v-1.4c2.8-.7,3.6-2.1,3.6-3.4a10.36,10.36,0,0,0-1.1-3.8l-4.1-9.3h-20.9l-3.7,9.3a10.59,10.59,0,0,0-.9,3.6c0,1.6.8,2.8,4,3.6v1.4c-1.9,0-6.8-.1-7.9-.1l-8.1.1Z"/><path class="cls-1" d="M448.52,51.32l-9-20.7-8.3,20.7Zm-35.7,20.9c3.5-.8,5.5-3.1,6.8-6.2l18-43a56,56,0,0,0,1.7-5.4h5a48.06,48.06,0,0,0,1.6,5.4l19,43.1c1.3,3,2.8,5.1,6.6,6.1v1.4c-2.1,0-8.5-.1-9.9-.1s-7.5.1-9.6.1v-1.4c2.8-.7,3.6-2.1,3.6-3.4a12.56,12.56,0,0,0-1-3.8l-4.1-9.3h-20.9l-3.7,9.3a10.59,10.59,0,0,0-.9,3.6c0,1.6.8,2.8,4,3.6v1.4c-1.9,0-6.8-.1-7.9-.1l-8.1.1Z"/><path class="cls-1" d="M.62.52H126v47c0,21.6-8.1,67.3-62.2,101.4,0,0-58.7-24.4-63.1-101.4V.52Z"/><path class="cls-2" d="M.32.32h125.5v47.2c0,21.6-8.1,67.3-62.3,101.4,0,0-58.7-24.4-63.2-101.4Z"/><path class="cls-3" d="M95.52,61s-1.1,3.5-6.1-.1l-17.1-.4a1.84,1.84,0,0,1-2.5-1.6,38.58,38.58,0,0,0,.2-5s.1-1.3-2.1-1.3c0,0-3.4.4-3.6-2.6,0,0-.6-3.2,4.2-3.1,0,0,1.5.7,1.6-1.2,0,0-.2-13.1-.1-14.1,0,0,.4-1.2-1.9-1.4,0,0-3.4.7-3.7-1.5,0,0-.2-3.3,2-3.5,0,0,2.7.2,3.2-.5,0,0,.6.4.5-2l.1-4.1s.3-1.1,2-1c0,0,3.2.2,3.6-.1s.6-.9.9-1.3c0,0,1.6-.1,1.9.3,0,0,2.4,1.6,11.7,1,0,0,1.4,0,1.7.4,0,0,1.7,1.3,2.7-.1a30.19,30.19,0,0,1,6-.3s5,1.3,8.4-1.5l1.1.2s1.4,2.3,2.4,1.6c0,0,3-.3,3.6.3,0,0,1,1.5.5,5.5,0,0-.6,1.7,2.3,1.7,0,0,3.4-.6,2.9,2.5,0,0,.9,3.5-4.7,3a2.72,2.72,0,0,0-.6,1.7s-.1,11.5-.2,12.8c0,0-.1,1.8,2.3,1.7,0,0,3.3-.2,3.4,2.7,0,0,.4,3.8-4.3,3.1,0,0-1.4.2-1.6,1.1l-.2,5s.1,2.5-2.7,1.9c-.4,0-15.8.3-17.2-.1.3,0-.5-.1-.6.3"/><path class="cls-3" d="M62.72,77.82a1.76,1.76,0,0,0,.9-.8,8.56,8.56,0,0,0,2.4-.5l6.7.5s6.6.5,9.4-1.5a4.67,4.67,0,0,1,1.7.3s1.4.3,1.8.9l3.9-.1s2.2.7,2,2.1v1.8s-.4,3.6.6,3.8h3s2.4,1.1,2.1,2.5a2.45,2.45,0,0,1-.6,1.6,2.75,2.75,0,0,1-1.5.8,13.73,13.73,0,0,1-2.8.5,5,5,0,0,0-.8,2l-.3,13.2s-.2,1.4,1.9,1.2c0,0,3.1-.3,4.1,1.4,0,0,.8,2.9-.8,3.4l-1.2.6-2.7.4s-1.1.1-1.2,2v3.5s.1,2.4-1.8,2.4l-2.8.2a4.18,4.18,0,0,1-1,.4,2.15,2.15,0,0,1-1.1-.2s-17.3.3-17.9.1l-2,.4s-2.2,2-4.1.5l-1.4-1.1a6.6,6.6,0,0,1-1.4.1c-.4-.1-19.1.2-19.1.2s-4,.4-4.3-.9a47.33,47.33,0,0,1-.3-5.8s0-1.5-.9-1.6c0,0-4-.2-4.1-.6,0,0-2.1-1.5-1.5-3a3.27,3.27,0,0,1,1.1-1.5,3.63,3.63,0,0,1,1.7-.7s3.2.5,3.2-.4a4.4,4.4,0,0,0,.2-1.6s.2-12,.1-12.8c0,0,.3-1.5-1-1.5a3.6,3.6,0,0,1-2.3-.2s-2.4.1-3-1.8a2.83,2.83,0,0,1,.2-2.2s1.1-2.2,4.4-1.5c0,0,1.8.5,2-.8l-.1-4.9s-.4-1.3,2.1-2c0,0,3.3.9,4.3-.7,0,0,1.1-2.2,2-.7,0,0,1.9,1.8,7.2,1.6,0,0,9.1-.7,9.3-.3,0,0,2.2.3,2.8,1Z"/><path class="cls-3" d="M35,61s-1.1,3.5-6.1-.1l-17-.4a1.84,1.84,0,0,1-2.5-1.6,38.58,38.58,0,0,0,.2-5s.1-1.3-2.1-1.3c0,0-3.4.4-3.5-2.6,0,0-.6-3.2,4.2-3.1,0,0,1.5.7,1.6-1.2,0,0-.2-13.1-.1-14.1,0,0,.4-1.2-1.9-1.4,0,0-3.4.7-3.7-1.5,0,0-.2-3.3,2-3.5,0,0,2.7.2,3.2-.5,0,0,.6.4.5-2l.1-4.2s.3-1.1,2-1c0,0,3.2.2,3.6-.1s.6-.9.9-1.3c0,0,1.6-.1,1.9.3,0,0,2.4,1.6,11.7,1,0,0,1.4,0,1.7.4,0,0,1.7,1.3,2.7-.1a31.13,31.13,0,0,1,6.1-.2s5,1.3,8.4-1.5l1.1.2s1.4,2.3,2.4,1.6c0,0,3-.3,3.6.3,0,0,1,1.5.5,5.5,0,0-.6,1.7,2.3,1.7,0,0,3.4-.6,3,2.5,0,0,.9,3.5-4.7,3a2.72,2.72,0,0,0-.6,1.7s-.1,11.5-.2,12.8c0,0-.1,1.8,2.3,1.7,0,0,3.2-.2,3.3,2.7,0,0,.4,3.8-4.3,3.1,0,0-1.4.2-1.6,1.1l-.2,5s.1,2.5-2.7,1.9c-.4,0-15.8.3-17.2-.1.1,0-.7-.1-.9.3"/><path d="M95.52,61s-1.1,3.5-6.1-.1l-17.1-.4a1.84,1.84,0,0,1-2.5-1.6,38.58,38.58,0,0,0,.2-5s.1-1.3-2.1-1.3c0,0-3.4.4-3.6-2.6,0,0-.6-3.2,4.2-3.1,0,0,1.5.7,1.6-1.2,0,0-.2-13.1-.1-14.1,0,0,.4-1.2-1.9-1.4,0,0-3.4.7-3.7-1.5,0,0-.2-3.3,2-3.5,0,0,2.7.2,3.2-.5,0,0,.6.4.5-2l.1-4.1s.3-1.1,2-1c0,0,3.2.2,3.6-.1s.6-.9.9-1.3c0,0,1.6-.1,1.9.3,0,0,2.4,1.6,11.7,1,0,0,1.4,0,1.7.4,0,0,1.7,1.3,2.7-.1a30.19,30.19,0,0,1,6-.3s5,1.3,8.4-1.5l1.1.2s1.4,2.3,2.4,1.6c0,0,3-.3,3.6.3,0,0,1,1.5.5,5.5,0,0-.6,1.7,2.3,1.7,0,0,3.4-.6,2.9,2.5,0,0,.9,3.5-4.7,3a2.72,2.72,0,0,0-.6,1.7s-.1,11.5-.2,12.8c0,0-.1,1.8,2.3,1.7,0,0,3.3-.2,3.4,2.7,0,0,.4,3.8-4.3,3.1,0,0-1.4.2-1.6,1.1l-.2,5s.1,2.5-2.7,1.9c-.4,0-15.8.3-17.2-.1.3,0-.5-.1-.6.3"/><path class="cls-4" d="M95.52,61s-1.1,3.5-6.1-.1l-17.1-.4a1.84,1.84,0,0,1-2.5-1.6,38.58,38.58,0,0,0,.2-5s.1-1.3-2.1-1.3c0,0-3.4.4-3.6-2.6,0,0-.6-3.2,4.2-3.1,0,0,1.5.7,1.6-1.2,0,0-.2-13.1-.1-14.1,0,0,.4-1.2-1.9-1.4,0,0-3.4.7-3.7-1.5,0,0-.2-3.3,2-3.5,0,0,2.7.2,3.2-.5,0,0,.6.4.5-2l.1-4.1s.3-1.1,2-1c0,0,3.1.2,3.6-.1.3-.4.6-.9.9-1.3,0,0,1.6-.1,1.9.3,0,0,2.4,1.6,11.7,1,0,0,1.4,0,1.7.4,0,0,1.7,1.3,2.7-.1a30.19,30.19,0,0,1,6-.3s5,1.3,8.4-1.5l1.1.2s1.4,2.3,2.4,1.6c0,0,3-.3,3.6.3,0,0,1,1.5.5,5.5,0,0-.6,1.7,2.3,1.7,0,0,3.4-.6,2.9,2.5,0,0,.9,3.5-4.7,3a2.72,2.72,0,0,0-.6,1.7s-.1,11.5-.2,12.8c0,0-.1,1.8,2.3,1.7,0,0,3.3-.2,3.4,2.7,0,0,.4,3.8-4.3,3.1,0,0-1.4.2-1.6,1.1l-.2,5s.1,2.5-2.7,1.9c-.4,0-15.8.3-17.2-.1C96.42,60.72,95.72,60.62,95.52,61Z"/><path class="cls-3" d="M76.32,19.42s.2,2,.2,2.5-.3,29.2-.3,29.2a3.08,3.08,0,0,1-.3,1.9,3,3,0,0,1-1.3,1.4s-.5.2-.6-1.2l.2-30.3C74.12,22.92,74.32,19.22,76.32,19.42Z"/><path class="cls-4" d="M76.32,19.42s.2,2,.2,2.5-.3,29.2-.3,29.2a3.08,3.08,0,0,1-.3,1.9,3,3,0,0,1-1.3,1.4s-.5.2-.6-1.2l.2-30.3C74.12,22.92,74.32,19.22,76.32,19.42Z"/><path class="cls-3" d="M72.92,54.72s.2-28.5.1-28.9.1.4.1.4-.3-5,1-7c0,0-.4-1.7-2.7.4l-.1,4.1s0,2.3-2.1,2.2c0,0-2.4-.1-3.6,1,0,0-.6,2.2,1.7,1.8,0,0,3.7,0,3.9,1.5L71,45.52A1.83,1.83,0,0,1,69,48s-3.5-.2-3.4,1.9c0,0,.7,1.8,3.7,1.2a2.42,2.42,0,0,1,2,2.4v3.8s-.2,1.5,1.8,1.6h15.8s.8.1.8-.9c0,0-.1-.8-1.3-.8L75.22,57c.1.1-2.1.8-2.3-2.3"/><path class="cls-3" d="M76,54.72s-.4,1.4,1.1,1.1h10.4l2.8.6s2.9-.7,0-2.3c0,0-9.3.1-10.2-.1l-2.3-.6c.1-.1-.9-.5-1.8,1.3"/><path class="cls-4" d="M76,54.72s-.4,1.4,1.1,1.1h10.4l2.8.6s3-.7,0-2.3c0,0-9.3.1-10.2-.1l-2.3-.6C77.92,53.42,76.92,52.92,76,54.72Z"/><path class="cls-3" d="M93.42,56.12s-1.9,0-1.8,2.5a2.67,2.67,0,0,0,.7,1.4,2,2,0,0,0,1.5.5,2.22,2.22,0,0,0,1.3-.8,2,2,0,0,0,.3-1.5s-1.1-2.5-2-2.1"/><path class="cls-3" d="M94.82,55.12s.9-1,1.5-1c0,0,10.2.9,11.9-.3,0,0,1.5-.3,1.9,0,0,0,1.5,1.2,1.5,1.9,0,0-.1.9-1.9.4l-12.1.1c-.1,0-3.2.7-2.8-1.1"/><path class="cls-4" d="M94.82,55.12s.9-1,1.5-1c0,0,10.2.9,11.9-.3,0,0,1.5-.3,1.9,0,0,0,1.5,1.2,1.5,1.9,0,0-.1.9-1.9.4l-12.1.1C97.52,56.22,94.42,56.92,94.82,55.12Z"/><path class="cls-3" d="M96.12,58.32s0-.8,1.4-.8l14.2-.1s1.3.7,1.3-1.7c0,0,.5-11,.6-23.1,0-3.6.2-7.4.1-10.9,0,0-.3-1.5-.7-1.8,0,0,0-1.6,1.7-1,0,0,1.5.1,1.1,2.4l.1,3.5s-.3,1.5,2.4,1.1c0,0,2.7.4,2.8,1.4,0,0,.8,2-2.4,1.8h-2.4a2.7,2.7,0,0,0-.7.8,1.73,1.73,0,0,0-.1,1l-.3,14.7s-.2,2.5,2.2,2.4c0,0,2.5-.1,3,.7,0,0,1.7,2.5-2,2.3,0,0-2.3-.1-2.8.3,0,0-.4.5-.7,5.3,0,0,.2,2.8-1.9,2.5,0,0-14.1.2-15.4-.1,0,0-1.4.4-1.6-.7"/><path class="cls-3" d="M77.82,18.42l-.3,32.4s-.1,1.5,2.4,1.8a14.15,14.15,0,0,0,3.6,0s1.9-.1,6.9.1c0,0,1.2,1.2,1.3-.3,0,0,.8-26.2.4-31.7,0,0-.1-2.3-1.8-2.4,0,0-7.7.6-8.4,0l-3.1-.8C78.92,17.52,77.72,17.62,77.82,18.42Z"/><path class="cls-3" d="M93.82,20.12s-.3,15.3-.2,15.8l-.2,12.8-.4,4.5s.6.9,1.1.3a17.55,17.55,0,0,1,5.3-.5s6.5.6,7.8-.4c0,0,1,.5,1.3-1.1,0,0,.4-28.3.2-28.8a31,31,0,0,0,.2-4.5s-.1-.9-1.8-.1c0,0,.2.8-9.4.5C97.72,18.52,94.12,18.42,93.82,20.12Z"/><path class="cls-3" d="M110,19.72l-.1,31.9s.8,2.8,2.1,2.6c.1-.5.2-1.1.3-1.6l.4-30.4c0-.1-1-4.9-2.7-2.5"/><path class="cls-4" d="M110,19.72l-.1,31.9s.8,2.8,2.1,2.6a4.53,4.53,0,0,0,.3-1.6l.4-30.4C112.72,22.12,111.72,17.22,110,19.72Z"/><path d="M97.52,29.22c-.3-.8,1.7-.9,1.7-.9l1,.2a3.18,3.18,0,0,1,1.4.2.76.76,0,0,1,.2.5v.5a.52.52,0,0,1-.2.4c-.1.1-.3.2-.4.3l-.4,1.3c-.1,1.1,0,10.7,0,10.7a7.1,7.1,0,0,0,1,1.4c0,.9-1.1.7-1.1.7l-2.9.1c-.9-.1-.6-1.1-.6-1.1,1-.5,1.3-2.3,1.3-2.3v-10Z"/><path d="M83.92,30.62c.1,2.2.1,5.3.1,5.3a1.23,1.23,0,0,0,.8.4,1.39,1.39,0,0,0,.9,0,2,2,0,0,0,.8-.4,1.79,1.79,0,0,0,.5-.7c2.5-2.4,0-4.6-.4-5.2s-2.4-.1-2.4-.1Zm-.1,8-.2,3.1.9,1.5c.6.8-.4,1.4-.4,1.4l-3.2-.3c-.6-.3,0-1.3,0-1.3a1.56,1.56,0,0,0,.6-.8,1.93,1.93,0,0,0,.3-1l-.1-5.9.1-4.2c0-.5-.8-1.4-.8-1.4-.7-.1-.5-1-.5-1,.2-.5,1.9-.2,1.9-.2h4.3c4.1,1.3,3.4,4.2,3.4,4.2.3,2.9-2.8,4.1-2.8,4.1l-.2,1.6L90,43a1.38,1.38,0,0,1,.3.4.75.75,0,0,1,.1.5c-.4,1.1-2,0-2,0l-3.7-5.7c-.3-.3-.9.4-.9.4"/><path d="M62.72,77.82a1.76,1.76,0,0,0,.9-.8,8.56,8.56,0,0,0,2.4-.5l6.7.5s6.6.5,9.4-1.5a4.67,4.67,0,0,1,1.7.3s1.4.3,1.8.9l3.9-.1s2.2.7,2,2.1v1.8s-.4,3.6.6,3.8h3s2.4,1.1,2.1,2.5a2.45,2.45,0,0,1-.6,1.6,2.75,2.75,0,0,1-1.5.8,13.73,13.73,0,0,1-2.8.5,5,5,0,0,0-.8,2l-.3,13.2s-.2,1.4,1.9,1.2c0,0,3.1-.3,4.1,1.4,0,0,.8,2.9-.8,3.4l-1.2.6-2.7.4s-1.1.1-1.2,2v3.5s.1,2.4-1.8,2.4l-2.8.2a4.18,4.18,0,0,1-1,.4,2.15,2.15,0,0,1-1.1-.2s-17.3.3-17.9.1l-2,.4s-2.2,2-4.1.5l-1.4-1.1a6.6,6.6,0,0,1-1.4.1c-.4-.1-19.1.2-19.1.2s-4,.4-4.3-.9a47.33,47.33,0,0,1-.3-5.8s0-1.5-.9-1.6c0,0-4-.2-4.1-.6,0,0-2.1-1.5-1.5-3a3.27,3.27,0,0,1,1.1-1.5,3.63,3.63,0,0,1,1.7-.7s3.2.5,3.2-.4a4.4,4.4,0,0,0,.2-1.6s.2-12,.1-12.8c0,0,.3-1.5-1-1.5a3.6,3.6,0,0,1-2.3-.2s-2.4.1-3-1.8a2.83,2.83,0,0,1,.2-2.2s1.1-2.2,4.4-1.5c0,0,1.8.5,2-.8l-.1-4.9s-.4-1.3,2.1-2c0,0,3.3.9,4.3-.7,0,0,1.1-2.2,2-.7,0,0,1.9,1.8,7.2,1.6,0,0,9.1-.7,9.3-.3,0,0,2.2.3,2.8,1Z"/><path class="cls-4" d="M62.72,77.72a1.76,1.76,0,0,0,.9-.8,8.56,8.56,0,0,0,2.4-.5l6.7.5s6.6.5,9.4-1.5a4.67,4.67,0,0,1,1.7.3s1.4.3,1.8.9l3.9-.1s2.2.7,2,2.1v1.8s-.4,3.6.6,3.8H95s2.4,1.1,2.1,2.5a2.45,2.45,0,0,1-.6,1.6,2.75,2.75,0,0,1-1.5.8,13.73,13.73,0,0,1-2.8.5,5,5,0,0,0-.8,2l-.3,13.2s-.2,1.4,1.9,1.2c0,0,3.1-.3,4.1,1.4,0,0,.8,2.9-.8,3.4l-1.2.6-2.7.4s-1.1.1-1.2,2v3.5s.1,2.4-1.8,2.4l-2.8.2a4.18,4.18,0,0,1-1,.4,2.15,2.15,0,0,1-1.1-.2s-17.3.3-17.9.1l-2,.4s-2.2,2-4.1.5l-1.4-1.1a6.6,6.6,0,0,1-1.4.1c-.4-.1-19.1.2-19.1.2s-4,.4-4.3-.9a48.49,48.49,0,0,1-.3-5.8s0-1.5-.9-1.6c0,0-4-.2-4.1-.6,0,0-2.1-1.5-1.5-3a3.27,3.27,0,0,1,1.1-1.5,3.63,3.63,0,0,1,1.7-.7s3.2.5,3.2-.4a4.4,4.4,0,0,0,.2-1.6s.2-12,.1-12.8c0,0,.3-1.5-1-1.5a3.6,3.6,0,0,1-2.3-.2s-2.4.1-2.9-1.8a2.83,2.83,0,0,1,.2-2.2s1.1-2.2,4.4-1.5c0,0,1.8.5,2-.8l-.1-4.9s-.4-1.3,2.1-2c0,0,3.2.9,4.3-.7,0,0,1.1-2.2,2-.7,0,0,1.9,1.8,7.2,1.6,0,0,9.1-.7,9.3-.3,0,0,2.2.3,2.8,1Z"/><path class="cls-3" d="M65.32,117.52a3.44,3.44,0,0,1,2-.4c.8.2,12.7-.1,12.7-.1s5.2.4,6-.3l1.2-.4a2.39,2.39,0,0,0,.5-1.4c0-.8.1-3.5.1-3.5l.3-1s-.1-1,0-28a4.17,4.17,0,0,0-.9-3.4s0-.8.4-.7.2.1.2.1,1.8-.5,2.1.2c0,0,.8,2.4.1,3.8,0,0-.2,3,1.3,3a3.55,3.55,0,0,0,.9.4,1.8,1.8,0,0,0,1-.1s2.6.3,2.6,1.1a1.7,1.7,0,0,1-.1.7,1,1,0,0,1-.4.5l-.6.3a.85.85,0,0,1-.7,0l-2.4.2a2,2,0,0,0-1.2.8,1.74,1.74,0,0,0-.3,1.4c.2,1.9-.1,15.7-.1,15.7s0,1.6,2.5,1.5c0,0,3.1-.1,3.1.8a1.44,1.44,0,0,1-1.4,2.1s-4.3-.1-4,1.1c-.1,1.1-.3,2.2-.5,3.3,0,0,.4,2.3-.1,2.7,0,0-.3,1.3-3,1.1,0,0-17.5-.1-20.2.1.1,0-1.5-.2-1.1-1.6"/><path class="cls-3" d="M62.22,115.62a1.85,1.85,0,0,1,1.2.7,2.11,2.11,0,0,1,.5,1.3c0,1.6.1,2.5-.9,2.7a2.2,2.2,0,0,1-.8.1,1.45,1.45,0,0,1-.7-.2,2.65,2.65,0,0,1-.6-.5,1.08,1.08,0,0,1-.3-.7C60.22,117.52,60.72,115.92,62.22,115.62Z"/><path class="cls-3" d="M64.22,114.82s1.8-1.2,2.5-1c0,0,9.2.6,12.1.1s1.1-.1,1.1-.1,2.4,0,3.1-.9a2,2,0,0,1,.7.1,1,1,0,0,1,.5.4l1.5,1.6s.1,1-1.6.9c0,0-16.6,0-17.1.1,0,0-3.1.5-2.8-1.2"/><path class="cls-4" d="M64.22,114.82s1.8-1.2,2.5-1c0,0,9.3.6,12.1.1s1.1-.1,1.1-.1,2.4,0,3.2-.9a1.27,1.27,0,0,1,.6.1,1,1,0,0,1,.5.4l1.5,1.6s.1,1-1.6.9c0,0-16.6,0-17.1.1C67,116,63.92,116.52,64.22,114.82Z"/><path class="cls-3" d="M40.12,79s.7,0,.6,1.2l-.2,30.5a2.78,2.78,0,0,1-.3,1.8,3.27,3.27,0,0,1-1.1,1.5s-.9,1.1-.9-.6l.4-31.1s.1-2.3,1.5-3.3"/><path class="cls-4" d="M40.12,79s.7,0,.6,1.2l-.2,30.5a3.19,3.19,0,0,1-.3,1.9,3.27,3.27,0,0,1-1.1,1.5s-.9,1.1-.9-.6l.4-31.1C38.62,82.32,38.72,80,40.12,79Z"/><path class="cls-3" d="M38.52,79.22s-1.2,2.2-1.1,2.7l-.1,6.8s-.1,4.3,0,4.8-.1,13.2-.1,13.2-.1,2.4,0,3.2v5.4s-.2,2.4,1.6,1.8c0,0,17.9-.4,19-.1,0,0,1.6.3,1,1.1,0,0,0,.7-1.1.5a142.54,142.54,0,0,1-16,.5s-5.1.3-5.4-.3c0,0-.8-.1-.8-3a16.68,16.68,0,0,0-.2-3.2s.2-1.4-2.3-1.7c0,0-3.6.6-3.7-1.5,0,0,.5-1.5,4-1.3,0,0,2.5.4,2-1.6l.3-14.9s.3-2.6-1.4-2.7a14.77,14.77,0,0,0-2.1.1s-2.9,0-2.7-1.7c0,0,1-1.8,4-1.4a1.94,1.94,0,0,0,2.3-2.1s-.1-5.2,1.1-5.4c-.1,0,2.4.1,1.7.8"/><path class="cls-3" d="M41.52,112.62a6.19,6.19,0,0,0,1.7,1.1,4.43,4.43,0,0,0,2,.3l13.8.2s1.5.1,1.4.9c0,0-.2,1.2-2,.8l-16.6-.2-1.8.1s-1.2-.2.7-2.5Z"/><path class="cls-4" d="M41.52,112.62a6.19,6.19,0,0,0,1.7,1.1,4.43,4.43,0,0,0,2,.3l13.8.2s1.5.1,1.4.9c0,0-.2,1.2-2,.8l-16.7-.2-1.8.1s-1.2-.2.7-2.5Z"/><path class="cls-3" d="M84.22,111.32s1.2,2.3,1.8,2.6c0,0,1.1,1.3.8-1l.2-29.1a5.7,5.7,0,0,1,0-2.6L85.82,79s-1.3-1-1.3.6l-.2,31Z"/><path class="cls-4" d="M84.22,111.32s1.2,2.3,1.8,2.6c0,0,1.1,1.3.8-1l.2-29.1a5.7,5.7,0,0,1,0-2.6L85.82,79s-1.3-1-1.3.6l-.2,31Z"/><path class="cls-3" d="M61.72,97.42a36.18,36.18,0,0,1-.2,4.7c-.2,1.3.4,7.2-.1,10.2,0,0-.1,1-2.2.1,0,0-13,.3-13.4-.1,0,0-3.6.1-3.9-1.7,0,0,.5-13.8.2-14.3,0,0-.2-7.6,0-8.3,0,0,.3-7,.1-7.8a6.52,6.52,0,0,0-.2-2.4s0-1,1.7-.4c0,0,.6,1.1,4,.6a19.29,19.29,0,0,0,4.8.1s5.2-.4,6.5,0a2.09,2.09,0,0,1,1.7.4,2.14,2.14,0,0,1,.9,1.5l-.1,6.3.6,2,.7-.5.3-1.5.1-6.7a3.92,3.92,0,0,1,.8-1,1.92,1.92,0,0,1,1.2-.4,13.7,13.7,0,0,1,3-.1,36.64,36.64,0,0,0,7.4.2c1.5-.3,1.8,1,6.4-1.3,0,0,1.2.1,1.2.9,0,0-.4,8.6,0,10.2,0,0,0,15.8-.3,16.9l.2,5s.2,2.2-3.3,2.4c0,0,2.2.3-11.8-.1a11,11,0,0,0-4.7,1s-.5-.1-.5-1.4a73.71,73.71,0,0,0,0-9.4l-.2-5.2Z"/><path d="M52.52,90.32s.3,7.5,0,8.5l-.1,1.6a4,4,0,0,0,1,1.5s.5,1.4-.7,1.3c-1-.1-2.1-.1-3.1-.1,0,0-1.4,0,0-1.8a4.42,4.42,0,0,0,.4-2.5s0-8.5.2-9c0,0,.2-1.1-.5-1.4l-1.2.1L47,89.92s-.3,1.5-1-.1V89l.9-2.4.6-.1a5.31,5.31,0,0,0,1.7.8H54l1.7-.8s.7.1.5,1c0,0,.3,2.3-1,2.6a2.1,2.1,0,0,1-.8-.6,2.18,2.18,0,0,1-.5-.8c0-.1-1.3-.8-1.4,1.6"/><path d="M74.92,87.52a3.89,3.89,0,0,0-1.5.2,5.67,5.67,0,0,0-1.3.8,3.81,3.81,0,0,0-.9,1.3,2.62,2.62,0,0,0-.2,1.5s-.4,2.8,3.9,4.7c0,0,3.2,1.5,2.9,3.4,0,0-.4,3.4-3.7,1.7,0,0-1.6-.8-1.5-1.7,0,0-.5-1.1-1.1-.9,0,0-.7.2-.4,3.5,0,0,0,1.3,1.5,0l.8.2a3.63,3.63,0,0,0,5.1-.5,4,4,0,0,0,.7-5.1,9.12,9.12,0,0,0-3.7-3s-2.2-1-2.7-2.7c0,0,.7-3,3.4-1.4a7,7,0,0,0,1.6,1.4s.8,0,.6-1.8l-.2-1.5s-.2-1.1-1.6,0c0,0-1.3.5-1.7-.1"/><path d="M60.92,92.12c-.1.5-.8,3.3-.8,3.3l.6,1s1.6.1,2.2.1.7-.5.7-1a35.8,35.8,0,0,0-1.1-3.5l-.5-.6Zm1.7-6.7a2.24,2.24,0,0,1,.8,1.5,121.6,121.6,0,0,1,3.7,13.1,8.62,8.62,0,0,0,1.4,1.8c1.7.6,0,1.1,0,1.1a9.08,9.08,0,0,1-3-.1c-1.2-.2-.7-.6-.7-.6.5-.5.1-2.5.1-2.5a6.81,6.81,0,0,0-1-2.1c-.4-.2-1.1.7-1.1.7s-1.1.4-1.2,0-.8-.8-.8-.8c-1.2,0-1.7,3-1.7,3,.7,2.5,0,2.1,0,2.1-.6.8-2.5.2-2.5.2-.9-.2-.3-.9-.3-.9a1.87,1.87,0,0,0,1.4-1.4c.5-.7,3.7-13.8,3.7-13.8.2-.6.4-1.8,1.2-1.3"/><path d="M35,61s-1.1,3.5-6.1-.1l-17-.4a1.84,1.84,0,0,1-2.5-1.6,38.58,38.58,0,0,0,.2-5s.1-1.3-2.1-1.3c0,0-3.4.4-3.5-2.6,0,0-.6-3.2,4.2-3.1,0,0,1.5.7,1.6-1.2,0,0-.2-13.1-.1-14.1,0,0,.4-1.2-1.9-1.4,0,0-3.4.7-3.7-1.5,0,0-.2-3.3,2-3.5,0,0,2.7.2,3.2-.5,0,0,.6.4.5-2l.1-4.2s.3-1.1,2-1c0,0,3.2.2,3.6-.1s.6-.9.9-1.3c0,0,1.6-.1,1.9.3,0,0,2.4,1.6,11.7,1,0,0,1.4,0,1.7.4,0,0,1.7,1.3,2.7-.1a31.13,31.13,0,0,1,6.1-.2s5,1.3,8.4-1.5l1.1.2s1.4,2.3,2.4,1.6c0,0,3-.3,3.6.3,0,0,1,1.5.5,5.5,0,0-.6,1.7,2.3,1.7,0,0,3.4-.6,3,2.5,0,0,.9,3.5-4.7,3a2.72,2.72,0,0,0-.6,1.7s-.1,11.5-.2,12.8c0,0-.1,1.8,2.3,1.7,0,0,3.2-.2,3.3,2.7,0,0,.4,3.8-4.3,3.1,0,0-1.4.2-1.6,1.1l-.2,5s.1,2.5-2.7,1.9c-.4,0-15.8.3-17.2-.1.1,0-.7-.1-.9.3"/><path class="cls-4" d="M35,61s-1.1,3.5-6.1-.1l-17-.4a1.84,1.84,0,0,1-2.5-1.6,38.58,38.58,0,0,0,.2-5s.1-1.3-2.1-1.3c0,0-3.4.4-3.5-2.6,0,0-.6-3.2,4.2-3.1,0,0,1.5.7,1.6-1.2,0,0-.2-13.1-.1-14.1,0,0,.4-1.2-1.9-1.4,0,0-3.4.7-3.7-1.5,0,0-.2-3.3,2-3.5,0,0,2.7.2,3.2-.5,0,0,.6.4.5-2l.1-4.2s.3-1.1,2-1c0,0,3.2.2,3.6-.1s.6-.9.9-1.3c0,0,1.6-.1,1.9.3,0,0,2.4,1.6,11.7,1,0,0,1.4,0,1.7.4,0,0,1.7,1.3,2.7-.1a31.13,31.13,0,0,1,6.1-.2s5,1.3,8.4-1.5l1.1.2s1.4,2.3,2.4,1.6c0,0,3-.3,3.6.3,0,0,1,1.5.5,5.5,0,0-.6,1.7,2.3,1.7,0,0,3.4-.6,3,2.5,0,0,.9,3.5-4.7,3a2.72,2.72,0,0,0-.6,1.7s-.1,11.5-.2,12.8c0,0-.1,1.8,2.3,1.7,0,0,3.2-.2,3.4,2.7,0,0,.4,3.8-4.3,3.1,0,0-1.4.2-1.6,1.1l-.2,5s.1,2.5-2.7,1.9c-.4,0-15.8.3-17.2-.1C36,60.72,35.22,60.62,35,61Z"/><path class="cls-3" d="M15.82,19.42s.2,2,.2,2.5-.3,29.2-.3,29.2a3.08,3.08,0,0,1-.3,1.9,3,3,0,0,1-1.3,1.4s-.5.2-.6-1.2l.2-30.3s.2-3.7,2.1-3.5"/><path class="cls-4" d="M15.92,19.42s.2,2,.2,2.5-.3,29.2-.3,29.2a3.08,3.08,0,0,1-.3,1.9,3,3,0,0,1-1.3,1.4s-.5.2-.6-1.2l.2-30.3C13.72,22.92,13.92,19.22,15.92,19.42Z"/><path class="cls-3" d="M12.52,54.72s.2-28.5.1-29,.1.4.1.4-.3-4.9,1-7c0,0-.4-1.7-2.7.4l-.1,4.1s0,2.3-2.1,2.2c0,0-2.4-.1-3.6,1,0,0-.6,2.2,1.7,1.8,0,0,3.7,0,3.9,1.5l-.2,15.4a1.83,1.83,0,0,1-2,2.5s-3.4-.2-3.4,1.9c0,0,.7,1.8,3.7,1.2a2.42,2.42,0,0,1,2,2.4v3.8s-.2,1.5,1.8,1.6h15.8s.8.1.8-.9c0,0-.1-.8-1.3-.8L14.82,57C14.82,57.12,12.72,57.82,12.52,54.72Z"/><path class="cls-3" d="M15.22,54.92s-.4,1.4,1.1,1.1h10.5l2.8.6s3-.7,0-2.3c0,0-9.3.1-10.2-.1l-2.3-.6c.1,0-1-.4-1.9,1.3"/><path class="cls-4" d="M15.22,54.92s-.4,1.4,1.1,1.1h10.5l2.9.6s3-.7,0-2.3c0,0-9.3.1-10.2-.1l-2.3-.6S16.12,53.22,15.22,54.92Z"/><path class="cls-3" d="M32.62,56.42s-2,0-1.8,2.5a2.67,2.67,0,0,0,.7,1.4,2,2,0,0,0,1.5.5,2.22,2.22,0,0,0,1.3-.8,2,2,0,0,0,.3-1.5c0-.1-1.1-2.6-2-2.1"/><path class="cls-3" d="M34,55.32s.9-1,1.5-1c0,0,10.2.9,11.9-.3,0,0,1.5-.3,1.9,0,0,0,1.5,1.2,1.5,1.9,0,0-.1.9-1.9.4l-12.1.1s-3.1.8-2.8-1.1"/><path class="cls-4" d="M34,55.32s.9-1,1.5-1c0,0,10.2.9,11.9-.3,0,0,1.5-.3,1.9,0,0,0,1.5,1.2,1.5,1.9,0,0-.1.9-1.9.4l-12.1.1S33.72,57.12,34,55.32Z"/><path class="cls-3" d="M35.72,58.32s0-.8,1.4-.8l14.2-.1s1.3.7,1.3-1.7c0,0,.5-11,.6-23.1,0-3.6.2-7.4,0-10.9,0,0-.3-1.5-.7-1.8,0,0,0-1.6,1.7-1,0,0,1.5.1,1.1,2.4l.1,3.5s-.3,1.5,2.4,1.1c0,0,2.7.4,2.8,1.4,0,0,.8,2-2.4,1.8h-2.3a2.7,2.7,0,0,0-.7.8,1.73,1.73,0,0,0-.1,1l-.3,14.6s-.2,2.5,2.2,2.4c0,0,2.5-.1,3,.7,0,0,1.7,2.5-2,2.3,0,0-2.3-.1-2.8.3,0,0-.4.5-.7,5.3,0,0,.2,2.8-1.9,2.5,0,0-14.1.2-15.4-.1,0,.1-1.4.6-1.5-.6"/><path class="cls-3" d="M17.42,18.42l-.3,32.4s-.1,1.5,2.4,1.8a15,15,0,0,0,3.7,0s1.9-.1,6.9.1c0,0,1.2,1.2,1.3-.3,0,0,.8-26.3.4-31.7,0,0-.1-2.3-1.8-2.4,0,0-7.7.6-8.4,0l-3-.8C18.52,17.52,17.32,17.62,17.42,18.42Z"/><path class="cls-3" d="M49.62,19.72l-.1,31.9s.8,2.8,2.1,2.5a4.53,4.53,0,0,0,.3-1.6l.4-30.4s-1-4.9-2.7-2.4"/><path class="cls-4" d="M49.62,19.72l-.1,31.9s.8,2.8,2.1,2.5a4.53,4.53,0,0,0,.3-1.6l.4-30.4s-1-4.9-2.7-2.4"/><path class="cls-4" d="M49.62,19.72l-.1,31.9s.8,2.8,2.1,2.5a4.53,4.53,0,0,0,.3-1.6l.4-30.4S51.32,17.22,49.62,19.72Z"/><path class="cls-3" d="M33.42,19.92s-.3,15.2-.2,15.8L33,48.52l-.4,4.5s.6.9,1.1.3a17.55,17.55,0,0,1,5.3-.5s6.5.6,7.8-.4c0,0,1,.5,1.3-1.1,0,0,.4-28.3.2-28.8a30.3,30.3,0,0,0,.2-4.5s-.1-.9-1.8-.1c0,0,.2.8-9.5.5.1,0-3.6-.1-3.8,1.5"/><path d="M30.32,29.32l-.9,1.9S27.22,41,26,43c0,0-.2,2-1.9.4,0,0-4-12.4-4.2-12.8l-1.3-.9s-.8-1.1.6-1.2l3.7.1s1.2,1-.4,2.1a53.89,53.89,0,0,0,2.3,7.8s.6,2.3,1.3.6l2.1-7.2-.6-2.1s-.6-1,.3-1.1c-.1-.1,2.1-.3,2.4.6"/><path d="M36.22,30.92l-.1,10.7-.3.8s-1,1.3-.3,1.4c0,0-.9.6,6.5.7,0,0,2.9.5,2.1-3.1,0,0-.3-1.3-1.3.6,0,0-.3,1.6-3.9,1.1a2.75,2.75,0,0,1-.8-1.5v-4.5s-.1-1.1,1.6-1c0,0,1.9,1.2,2.2.7,0,0,.7-1.6,0-2.6,0,0-.9-.1-1,.3,0,0-.6,1.2-2.3.5a4.14,4.14,0,0,1-.3-2.9s-.2-2.5,1.5-2.3c0,0,2,.4,2.2,1,0,0,.5,1.2,1-.2l-.5-1.7s-.3-.7-.8-.5c0,0-3.4.5-3.9.1l-2.7.3c0,.2-.1.3-.1.5s.1.3.1.4.2.3.3.4a.76.76,0,0,0,.4.2c.1.1.2.2.2.3.2.1.2.2.2.3"/></g></g></svg>
