<?xml version="1.0" encoding="utf-8"?>
<!-- Generator: Adobe Illustrator 23.1.1, SVG Export Plug-In . SVG Version: 6.00 Build 0)  -->
<svg version="1.1" id="Layer_1" xmlns="http://www.w3.org/2000/svg" xmlns:xlink="http://www.w3.org/1999/xlink" x="0px" y="0px"
	 viewBox="0 0 600.3 149.3" style="enable-background:new 0 0 600.3 149.3;" xml:space="preserve">
<style type="text/css">
	.st0{fill:#DBDBDB;enable-background:new    ;}
	.st1{opacity:0.2;fill:none;stroke:#DBDBDB;stroke-width:0.65;enable-background:new    ;}
	.st2{fill:#FFFFFF;}
	.st3{fill:#DBDBDB;}
	.st4{opacity:0.2;fill:none;stroke:#DBDBDB;stroke-width:3.000000e-02;enable-background:new    ;}
	.st5{opacity:0.2;fill:none;stroke:#4A4A4A;stroke-width:3.000000e-02;enable-background:new    ;}
	.st6{fill:#DBDBDB;stroke:#DBDBDB;stroke-width:3.000000e-02;enable-background:new    ;}
</style>
<title>harvard</title>
<g>
	<g id="layer">
		<path class="st0" d="M242.3,103.2c0-1.3-0.8-2.2-2.5-2.6v-0.8c0.9,0,4.1,0.1,4.9,0.1s3.8-0.1,4.7-0.1v0.8
			c-1.4,0.1-2.4,1.2-2.4,2.6v16c0,5.1,2.8,7.9,8.7,7.9c5,0,9-2.2,9-7.6V103c0-1.2-0.7-2.1-2.6-2.5v-0.8c0.7,0,3.3,0.1,4.1,0.1
			s3.5-0.1,4.2-0.1v0.8c-1.8,0.4-2.6,1.2-2.6,2.5v15.6c0,7-4.1,11-12.9,11c-8.2,0-12.5-3.7-12.5-10.3L242.3,103.2z"/>
		<path class="st0" d="M277.5,128.5c1.9-0.4,2.7-1.3,2.7-2.5v-22.1c0-1.9-1-2.7-2.7-3.2v-0.8c1,0.1,2.6,0.1,3.4,0.1
			c0.9,0,1.8,0,2.7-0.1l19.3,22.6v-19.3c0-1.2-0.7-2.1-2.6-2.5v-0.8c0.7,0,3.2,0.1,4.1,0.1c0.7,0,3.4-0.1,4.1-0.1v0.8
			c-1.8,0.4-2.7,1.2-2.7,2.5v26.6h-1.2c-0.7-0.2-2.1-1-4.2-3.3l-17.3-20V126c0,1.2,0.7,2.1,2.6,2.5v0.8c-0.7,0-3.2-0.1-4.1-0.1
			c-0.7,0-3.4,0.1-4.1,0.1L277.5,128.5L277.5,128.5z"/>
		<path class="st0" d="M429.9,122.5h0.8c0.4,1.6,1.4,3,2.7,4c1.6,1,3.4,1.5,5.3,1.4c3.9,0,6.4-1.9,6.4-4.9s-3.2-4.8-6.9-6.7
			c-2.8-1.4-8.3-3.7-8.3-9c0-5,3.8-8,9.9-8c4,0,5.9,1,8.6,0.8l-0.1,6h-0.8c-1.1-3.5-4.3-4.8-7.8-4.8c-4,0-5.4,2.2-5.4,4.5
			c0,3.3,3.2,4.9,6.9,6.5c4.1,1.8,8.6,4.1,8.6,9.2c0,4.8-3.8,8.4-10.8,8.4c-4.1,0-6.6-1.2-8.8-1.5L429.9,122.5z"/>
		<path class="st0" d="M517.5,115.9v10c0,0.7,0.3,1.3,0.8,1.7c0.4,0.5,1,0.8,1.7,0.8v0.8c-1,0-4.1-0.1-5-0.1c-0.7,0-3.7,0.1-4.9,0.1
			v-0.7c0.6-0.1,1.2-0.4,1.7-0.8c0.5-0.4,0.8-1,0.8-1.7v-9.6L517.5,115.9z M513,117.1l-7.9-12.5c-1.3-2.2-2.4-3.4-3.9-3.9v-0.8
			c1.1,0,4,0.1,4.8,0.1s3.9-0.1,5-0.1v0.8c-1,0.2-1.5,0.7-1.5,1.4c0.1,0.8,0.4,1.6,0.9,2.3l5.8,9.6l5.6-9.6c0.5-0.8,0.8-1.6,1-2.5
			c0-0.6-0.4-1-1.4-1.2v-0.8c0.9,0,2.9,0.1,3.6,0.1s2.9-0.1,3.9-0.1v0.7c-2.2,0.9-3.5,2.8-4.8,4.9l-7.2,11.9"/>
		<path class="st0" d="M366.8,99.9h18.4c0.7,0,1.4-0.1,2.1-0.3h0.8l-0.1,5.9h-0.8c-0.7-1.9-1.4-3.4-5-3.4h-8v10.4h6.2
			c0.8,0,1.7-0.1,2.5-0.2c1.2-0.2,2.1-1.1,2.3-2.3h0.8c-0.1,0.9-0.1,3-0.1,3.6s0.1,2.8,0.1,3.7h-0.8c-0.4-1.2-0.9-2.1-2.2-2.4
			c-0.8-0.2-1.7-0.2-2.5-0.2h-6.2v12.2h8.7c3.8,0,4.9-1.6,5.9-3.8l0.8,0.2l-0.8,6.1c-2.6-0.2-5.1-0.3-7.7-0.2H372
			c-0.9,0-4.1,0.1-5.1,0.1v-0.8c1.7-0.3,2.6-1.1,2.6-2.7v-22.5c0-1.4-0.7-2.3-2.6-2.6L366.8,99.9z"/>
		<path class="st0" d="M319.7,103.4c0-1.5-0.9-2.3-2.7-2.7v-0.8c1,0,4.2,0.1,5.1,0.1s4.1-0.1,5.1-0.1v0.8c-1.8,0.4-2.7,1.1-2.7,2.7
			v22.4c0,1.5,0.9,2.3,2.7,2.7v0.8c-1,0-4.2-0.1-5.1-0.1s-4.1,0.1-5.1,0.1v-0.8c1.8-0.3,2.7-1.1,2.7-2.7V103.4z"/>
		<path class="st0" d="M459.6,103.4c0-1.5-0.9-2.3-2.7-2.7v-0.8c1,0,4.2,0.1,5.1,0.1c0.7,0,4.1-0.1,5.1-0.1v0.8
			c-1.8,0.4-2.7,1.1-2.7,2.7v22.4c0,1.5,0.9,2.3,2.7,2.7v0.8c-1,0-4.1-0.1-5.1-0.1c-0.7,0-4.1,0.1-5.1,0.1v-0.8
			c1.8-0.3,2.7-1.1,2.7-2.7V103.4z"/>
		<path class="st0" d="M485.2,100c-10.1,0-11.7-0.2-13.8-0.3v6.1h0.8c0.7-2.7,2.2-3.3,4.2-3.3h6.3v23.4c0,1.6-0.9,2.4-2.7,2.7v0.8
			c1,0,4.4-0.1,5.1-0.1c0.9,0,4.1,0.1,5.1,0.1v-0.9c-1.8-0.4-2.7-1.2-2.7-2.7v-23.4h6.3c2,0,3.5,0.7,4.2,3.3h0.8v-6.1
			C496.9,99.8,495.3,100,485.2,100"/>
		<path class="st0" d="M404.6,113.8c1.2,0.1,2.5,0.2,3.7,0.2c5.5,0,7.3-3.2,7.3-6c0-4-2.7-6.4-7.5-6.4c-1.2,0-2.3,0.1-3.5,0.3V113.8
			z M404.6,125.8c0,1.5,1,2.3,2.7,2.7v0.8c-1,0-4.2-0.1-5.1-0.1s-3.9,0.1-4.9,0.1v-0.8c1.7-0.3,2.6-1.1,2.6-2.7v-22.6
			c0-1.4-0.7-2.2-2.6-2.6v-0.8c1,0,4.1,0.1,5,0.1c1.4,0,5.6-0.2,7.2-0.2c7.1,0,11,2.9,11,7.9c0,3.9-2.9,6.6-7.5,7.7
			c0.8,0.5,1.5,1.1,2.1,1.8c1.2,1.5,4.6,6.3,6,8s3.2,3.6,5.1,3.7v0.7c-1.2,0.2-2.3,0.4-3.5,0.4c-2.5,0.1-4.8-1.1-6.2-3.1
			c-1.6-2-4.4-6-6-8.1c-0.5-0.7-1.2-1.4-2-1.8c-0.8-0.5-1.7-0.8-2.6-0.9c-0.4-0.1-0.9-0.1-1.4-0.2L404.6,125.8z"/>
		<path class="st0" d="M334.3,103.5c-0.3-0.7-0.7-1.3-1.3-1.8c-0.6-0.5-1.3-0.8-2-1v-0.8c1.1,0,4.7,0.1,5.5,0.1s3.9-0.1,5-0.1v0.8
			c-1,0.2-2.1,0.7-2.1,1.7c0.2,1.2,0.6,2.3,1.2,3.4l7.6,17.3l7.2-17.3c0.5-1,0.8-2.2,1-3.3c0-0.9-0.8-1.5-2-1.8v-0.8
			c1,0,3.3,0.1,4,0.1s3.4-0.1,4.5-0.1v0.8c-1.8,0.5-2.9,1.5-3.9,3.8l-10.6,24.9H346L334.3,103.5z"/>
		<path class="st0" d="M361.6,24.9c-1-2.8-3.4-4.8-6.3-5.4v-1.6c2,0,8.6,0.2,10.1,0.2s7.8-0.2,9.8-0.2v1.5c-1.8,0.4-3.9,1.4-3.9,3.2
			c0,1.3,0.8,3.1,2.3,6.5l14.5,32.7L401.8,29c1.1-2.7,1.9-4.7,1.9-6.3s-1.6-2.9-3.9-3.4v-1.5c1.8,0,6.2,0.2,7.6,0.2s6.5-0.2,8.5-0.2
			v1.5c-3.4,0.9-5.5,2.9-7.4,7.3l-20.2,47.3h-4.5L361.6,24.9z"/>
		<path class="st0" d="M166.6,72.2c2.6-0.6,4.5-1.8,4.5-4.8V24.1c0-2.9-1.7-4-4.5-4.7v-1.5c1.4,0,7.3,0.2,8.8,0.2
			c1.7,0,7.9-0.2,9.3-0.2v1.5c-2.6,0.6-4.6,1.8-4.6,4.7v18.1h32.4V24.1c0-3-1.7-4.1-4.5-4.7v-1.5c1.4,0,7.5,0.2,9.2,0.2
			c1.4,0,7.5-0.2,8.9-0.2v1.5c-2.6,0.6-4.6,1.8-4.6,4.7v43.4c0,2.8,1.8,4,4.6,4.8v1.4c-1.4,0-7.5-0.1-8.9-0.1
			c-1.7,0-7.8,0.1-9.2,0.1v-1.4c2.6-0.6,4.5-1.8,4.5-4.8V47H180v20.5c0,3,1.8,4,4.6,4.8v1.4c-1.4,0-7.6-0.1-9.3-0.1
			c-1.4,0-7.4,0.1-8.8,0.1v-1.5L166.6,72.2z"/>
		<path class="st0" d="M556.3,69.3c2.9,0.4,5.9,0.6,8.8,0.6c16.8,0,25.5-10,25.5-24c0-14.5-9.2-24.7-24.9-24.7
			c-3.1,0-6.3,0.2-9.4,0.6L556.3,69.3L556.3,69.3z M542.1,72.2c3.4-0.6,5.2-1.9,5.2-5V24.1c0-3-1.8-4.1-5.1-4.7v-1.6
			c1.9,0,8,0.2,9.7,0.2c2.7,0,10.3-0.6,16.3-0.6c20,0,32.1,11.1,32.1,27.9c0,16.4-12.6,28.5-33.2,28.5c-5.9,0-13-0.5-15.7-0.5
			c-1.7,0-7.4,0.2-9.2,0.2L542.1,72.2z"/>
		<path class="st0" d="M316,44.3c2.3,0.3,4.7,0.4,7,0.3c10.5,0,13.8-6,13.8-11.3c0-7.5-5.1-12.2-14.3-12.2c-2.2,0-4.4,0.2-6.6,0.6
			v22.6H316z M316,67.1c0,2.9,1.8,4.5,5.2,5.1v1.5c-1.9,0-8-0.2-9.7-0.2c-1.5,0-7.5,0.2-9.4,0.2v-1.5c3.1-0.6,5-2.1,5-5.1V24.3
			c0-2.6-1.4-4.3-5-4.9v-1.5c1.9,0,7.8,0.2,9.5,0.2c2.7,0,10.5-0.5,13.6-0.5c13.4,0,20.9,5.5,20.9,15c0,7.4-5.6,12.5-14.1,14.5
			c1.5,0.9,2.8,2.1,3.9,3.4c2.4,2.8,8.9,12.1,11.6,15.3s6,6.8,9.7,6.9V74c-2.2,0.4-4.4,0.7-6.6,0.7c-4.6,0-8.2-1.6-11.8-5.9
			c-3.1-3.7-8.4-11.6-11.4-15.4c-1-1.4-2.3-2.6-3.8-3.4c-1.5-0.9-3.1-1.4-4.8-1.7c-0.9-0.1-1.7-0.3-2.6-0.4L316,67.1z"/>
		<path class="st0" d="M493,44.3c2.3,0.3,4.7,0.4,7,0.3c10.5,0,13.8-6,13.8-11.3c0-7.5-5.1-12.2-14.2-12.2c-2.2,0-4.4,0.2-6.6,0.6
			L493,44.3z M493,67.1c0,2.9,1.8,4.5,5.2,5.1v1.5c-1.9,0-8-0.2-9.7-0.2c-1.5,0-7.5,0.2-9.4,0.2v-1.5c3.1-0.6,5-2.1,5-5.1V24.3
			c0-2.6-1.4-4.3-4.9-4.9v-1.5c1.9,0,7.8,0.2,9.5,0.2c2.8,0,10.5-0.5,13.6-0.5c13.4,0,20.9,5.5,20.9,15c0,7.4-5.6,12.5-14.1,14.5
			c1.5,0.9,2.8,2.1,3.9,3.4c2.4,2.8,9,12.1,11.6,15.3s6,6.8,9.6,6.9V74c-2.2,0.4-4.4,0.7-6.6,0.7c-4.6,0-8.2-1.6-11.8-5.9
			c-3-3.7-8.4-11.6-11.4-15.4c-1-1.4-2.3-2.6-3.8-3.4c-1.5-0.9-3.1-1.4-4.8-1.7c-0.9-0.1-1.7-0.3-2.6-0.4L493,67.1z"/>
		<path class="st0" d="M270.4,51.3l-9-20.7l-8.3,20.7H270.4z M234.6,72.2c3.6-0.8,5.5-3.1,6.8-6.2l18-43c0.7-1.8,1.2-3.6,1.7-5.4h5
			c0.4,1.8,1,3.6,1.6,5.4l19,43.1c1.4,3,2.8,5.1,6.6,6.1v1.4c-2.1,0-8.5-0.1-9.9-0.1s-7.5,0.1-9.6,0.1v-1.4c2.8-0.7,3.6-2.1,3.6-3.4
			c-0.1-1.3-0.5-2.6-1.1-3.8l-4.1-9.3h-20.9l-3.7,9.3c-0.5,1.1-0.8,2.4-0.9,3.6c0,1.6,0.8,2.8,4,3.6v1.4c-1.9,0-6.8-0.1-7.9-0.1
			l-8.1,0.1L234.6,72.2z"/>
		<path class="st0" d="M448.5,51.3l-9-20.7l-8.3,20.7H448.5z M412.8,72.2c3.5-0.8,5.5-3.1,6.8-6.2l18-43c0.7-1.8,1.2-3.6,1.7-5.4h5
			c0.4,1.8,1,3.6,1.6,5.4l19,43.1c1.3,3,2.8,5.1,6.6,6.1v1.4c-2.1,0-8.5-0.1-9.9-0.1s-7.5,0.1-9.6,0.1v-1.4c2.8-0.7,3.6-2.1,3.6-3.4
			c-0.1-1.3-0.5-2.6-1-3.8l-4.1-9.3h-20.9l-3.7,9.3c-0.5,1.1-0.8,2.4-0.9,3.6c0,1.6,0.8,2.8,4,3.6v1.4c-1.9,0-6.8-0.1-7.9-0.1
			l-8.1,0.1L412.8,72.2z"/>
		<path class="st0" d="M0.6,0.5H126v47c0,21.6-8.1,67.3-62.2,101.4c0,0-58.7-24.4-63.1-101.4L0.6,0.5L0.6,0.5z"/>
		<path class="st1" d="M0.3,0.3h125.5v47.2c0,21.6-8.1,67.3-62.3,101.4c0,0-58.7-24.4-63.2-101.4L0.3,0.3z"/>
		<path class="st2" d="M95.5,61c0,0-1.1,3.5-6.1-0.1l-17.1-0.4c-0.9,0.4-2-0.1-2.4-1.1c-0.1-0.2-0.1-0.4-0.1-0.5
			c0.2-1.7,0.2-3.3,0.2-5c0,0,0.1-1.3-2.1-1.3c0,0-3.4,0.4-3.6-2.6c0,0-0.6-3.2,4.2-3.1c0,0,1.5,0.7,1.6-1.2c0,0-0.2-13.1-0.1-14.1
			c0,0,0.4-1.2-1.9-1.4c0,0-3.4,0.7-3.7-1.5c0,0-0.2-3.3,2-3.5c0,0,2.7,0.2,3.2-0.5c0,0,0.6,0.4,0.5-2l0.1-4.1c0,0,0.3-1.1,2-1
			c0,0,3.2,0.2,3.6-0.1s0.6-0.9,0.9-1.3c0,0,1.6-0.1,1.9,0.3c0,0,2.4,1.6,11.7,1c0,0,1.4,0,1.7,0.4c0,0,1.7,1.3,2.7-0.1
			c2-0.3,4-0.4,6-0.3c0,0,5,1.3,8.4-1.5l1.1,0.2c0,0,1.4,2.3,2.4,1.6c0,0,3-0.3,3.6,0.3c0,0,1,1.5,0.5,5.5c0,0-0.6,1.7,2.3,1.7
			c0,0,3.4-0.6,2.9,2.5c0,0,0.9,3.5-4.7,3c-0.4,0.5-0.6,1.1-0.6,1.7c0,0-0.1,11.5-0.2,12.8c0,0-0.1,1.8,2.3,1.7c0,0,3.3-0.2,3.4,2.7
			c0,0,0.4,3.8-4.3,3.1c0,0-1.4,0.2-1.6,1.1l-0.2,5c0,0,0.1,2.5-2.7,1.9c-0.4,0-15.8,0.3-17.2-0.1C96.4,60.7,95.6,60.6,95.5,61"/>
		<path class="st2" d="M62.7,77.8c0.4-0.2,0.7-0.4,0.9-0.8c0.8-0.1,1.6-0.2,2.4-0.5l6.7,0.5c0,0,6.6,0.5,9.4-1.5
			c0.6,0,1.2,0.1,1.7,0.3c0,0,1.4,0.3,1.8,0.9l3.9-0.1c0,0,2.2,0.7,2,2.1v1.8c0,0-0.4,3.6,0.6,3.8h3c0,0,2.4,1.1,2.1,2.5
			c0,0.6-0.2,1.2-0.6,1.6c-0.4,0.4-0.9,0.7-1.5,0.8c-0.9,0.3-1.9,0.4-2.8,0.5c-0.4,0.6-0.7,1.3-0.8,2l-0.3,13.2c0,0-0.2,1.4,1.9,1.2
			c0,0,3.1-0.3,4.1,1.4c0,0,0.8,2.9-0.8,3.4l-1.2,0.6l-2.7,0.4c0,0-1.1,0.1-1.2,2v3.5c0,0,0.1,2.4-1.8,2.4l-2.8,0.2
			c-0.3,0.2-0.7,0.3-1,0.4c-0.4,0-0.8,0-1.1-0.2c0,0-17.3,0.3-17.9,0.1l-2,0.4c0,0-2.2,2-4.1,0.5l-1.4-1.1c-0.5,0.1-0.9,0.1-1.4,0.1
			c-0.4-0.1-19.1,0.2-19.1,0.2s-4,0.4-4.3-0.9c-0.2-1.9-0.3-3.9-0.3-5.8c0,0,0-1.5-0.9-1.6c0,0-4-0.2-4.1-0.6c0,0-2.1-1.5-1.5-3
			c0.2-0.6,0.6-1.1,1.1-1.5c0.5-0.4,1.1-0.6,1.7-0.7c0,0,3.2,0.5,3.2-0.4c0.2-0.5,0.2-1.1,0.2-1.6c0,0,0.2-12,0.1-12.8
			c0,0,0.3-1.5-1-1.5c-0.8,0.2-1.6,0.1-2.3-0.2c0,0-2.4,0.1-3-1.8c-0.2-0.7-0.2-1.5,0.2-2.2c0,0,1.1-2.2,4.4-1.5c0,0,1.8,0.5,2-0.8
			l-0.1-4.9c0,0-0.4-1.3,2.1-2c0,0,3.3,0.9,4.3-0.7c0,0,1.1-2.2,2-0.7c0,0,1.9,1.8,7.2,1.6c0,0,9.1-0.7,9.3-0.3c0,0,2.2,0.3,2.8,1
			L62.7,77.8z"/>
		<path class="st2" d="M35,61c0,0-1.1,3.5-6.1-0.1l-17-0.4c-0.9,0.4-2-0.1-2.4-1.1c-0.1-0.2-0.1-0.4-0.1-0.5c0.2-1.7,0.2-3.3,0.2-5
			c0,0,0.1-1.3-2.1-1.3c0,0-3.4,0.4-3.5-2.6c0,0-0.6-3.2,4.2-3.1c0,0,1.5,0.7,1.6-1.2c0,0-0.2-13.1-0.1-14.1c0,0,0.4-1.2-1.9-1.4
			c0,0-3.4,0.7-3.7-1.5c0,0-0.2-3.3,2-3.5c0,0,2.7,0.2,3.2-0.5c0,0,0.6,0.4,0.5-2l0.1-4.2c0,0,0.3-1.1,2-1c0,0,3.2,0.2,3.6-0.1
			s0.6-0.9,0.9-1.3c0,0,1.6-0.1,1.9,0.3c0,0,2.4,1.6,11.7,1c0,0,1.4,0,1.7,0.4c0,0,1.7,1.3,2.7-0.1c2-0.3,4.1-0.3,6.1-0.2
			c0,0,5,1.3,8.4-1.5l1.1,0.2c0,0,1.4,2.3,2.4,1.6c0,0,3-0.3,3.6,0.3c0,0,1,1.5,0.5,5.5c0,0-0.6,1.7,2.3,1.7c0,0,3.4-0.6,3,2.5
			c0,0,0.9,3.5-4.7,3c-0.4,0.5-0.6,1.1-0.6,1.7c0,0-0.1,11.5-0.2,12.8c0,0-0.1,1.8,2.3,1.7c0,0,3.2-0.2,3.3,2.7c0,0,0.4,3.8-4.3,3.1
			c0,0-1.4,0.2-1.6,1.1l-0.2,5c0,0,0.1,2.5-2.7,1.9c-0.4,0-15.8,0.3-17.2-0.1C36,60.7,35.2,60.6,35,61"/>
		<path class="st3" d="M95.5,61c0,0-1.1,3.5-6.1-0.1l-17.1-0.4c-0.9,0.4-2-0.1-2.4-1.1c-0.1-0.2-0.1-0.4-0.1-0.5
			c0.2-1.7,0.2-3.3,0.2-5c0,0,0.1-1.3-2.1-1.3c0,0-3.4,0.4-3.6-2.6c0,0-0.6-3.2,4.2-3.1c0,0,1.5,0.7,1.6-1.2c0,0-0.2-13.1-0.1-14.1
			c0,0,0.4-1.2-1.9-1.4c0,0-3.4,0.7-3.7-1.5c0,0-0.2-3.3,2-3.5c0,0,2.7,0.2,3.2-0.5c0,0,0.6,0.4,0.5-2l0.1-4.1c0,0,0.3-1.1,2-1
			c0,0,3.2,0.2,3.6-0.1s0.6-0.9,0.9-1.3c0,0,1.6-0.1,1.9,0.3c0,0,2.4,1.6,11.7,1c0,0,1.4,0,1.7,0.4c0,0,1.7,1.3,2.7-0.1
			c2-0.3,4-0.4,6-0.3c0,0,5,1.3,8.4-1.5l1.1,0.2c0,0,1.4,2.3,2.4,1.6c0,0,3-0.3,3.6,0.3c0,0,1,1.5,0.5,5.5c0,0-0.6,1.7,2.3,1.7
			c0,0,3.4-0.6,2.9,2.5c0,0,0.9,3.5-4.7,3c-0.4,0.5-0.6,1.1-0.6,1.7c0,0-0.1,11.5-0.2,12.8c0,0-0.1,1.8,2.3,1.7c0,0,3.3-0.2,3.4,2.7
			c0,0,0.4,3.8-4.3,3.1c0,0-1.4,0.2-1.6,1.1l-0.2,5c0,0,0.1,2.5-2.7,1.9c-0.4,0-15.8,0.3-17.2-0.1C96.4,60.7,95.6,60.6,95.5,61"/>
		<path class="st4" d="M95.5,61c0,0-1.1,3.5-6.1-0.1l-17.1-0.4c-0.9,0.4-2-0.1-2.4-1.1c-0.1-0.2-0.1-0.4-0.1-0.5
			c0.2-1.7,0.2-3.3,0.2-5c0,0,0.1-1.3-2.1-1.3c0,0-3.4,0.4-3.6-2.6c0,0-0.6-3.2,4.2-3.1c0,0,1.5,0.7,1.6-1.2c0,0-0.2-13.1-0.1-14.1
			c0,0,0.4-1.2-1.9-1.4c0,0-3.4,0.7-3.7-1.5c0,0-0.2-3.3,2-3.5c0,0,2.7,0.2,3.2-0.5c0,0,0.6,0.4,0.5-2l0.1-4.1c0,0,0.3-1.1,2-1
			c0,0,3.1,0.2,3.6-0.1c0.3-0.4,0.6-0.9,0.9-1.3c0,0,1.6-0.1,1.9,0.3c0,0,2.4,1.6,11.7,1c0,0,1.4,0,1.7,0.4c0,0,1.7,1.3,2.7-0.1
			c2-0.3,4-0.4,6-0.3c0,0,5,1.3,8.4-1.5l1.1,0.2c0,0,1.4,2.3,2.4,1.6c0,0,3-0.3,3.6,0.3c0,0,1,1.5,0.5,5.5c0,0-0.6,1.7,2.3,1.7
			c0,0,3.4-0.6,2.9,2.5c0,0,0.9,3.5-4.7,3c-0.4,0.5-0.6,1.1-0.6,1.7c0,0-0.1,11.5-0.2,12.8c0,0-0.1,1.8,2.3,1.7c0,0,3.3-0.2,3.4,2.7
			c0,0,0.4,3.8-4.3,3.1c0,0-1.4,0.2-1.6,1.1l-0.2,5c0,0,0.1,2.5-2.7,1.9c-0.4,0-15.8,0.3-17.2-0.1C96.4,60.7,95.7,60.6,95.5,61z"/>
		<path class="st2" d="M76.3,19.4c0,0,0.2,2,0.2,2.5s-0.3,29.2-0.3,29.2c0.1,0.6,0,1.3-0.3,1.9c-0.3,0.6-0.7,1.1-1.3,1.4
			c0,0-0.5,0.2-0.6-1.2l0.2-30.3C74.1,22.9,74.3,19.2,76.3,19.4z"/>
		<path class="st5" d="M76.3,19.4c0,0,0.2,2,0.2,2.5s-0.3,29.2-0.3,29.2c0.1,0.6,0,1.3-0.3,1.9c-0.3,0.6-0.7,1.1-1.3,1.4
			c0,0-0.5,0.2-0.6-1.2l0.2-30.3C74.1,22.9,74.3,19.2,76.3,19.4z"/>
		<path class="st2" d="M72.9,54.7c0,0,0.2-28.5,0.1-28.9s0.1,0.4,0.1,0.4s-0.3-5,1-7c0,0-0.4-1.7-2.7,0.4l-0.1,4.1
			c0,0,0,2.3-2.1,2.2c0,0-2.4-0.1-3.6,1c0,0-0.6,2.2,1.7,1.8c0,0,3.7,0,3.9,1.5L71,45.5c0.4,0.9-0.1,2-1,2.4c-0.3,0.1-0.6,0.2-1,0.1
			c0,0-3.5-0.2-3.4,1.9c0,0,0.7,1.8,3.7,1.2c1.2,0.2,2,1.2,2,2.4v3.8c0,0-0.2,1.5,1.8,1.6h15.8c0,0,0.8,0.1,0.8-0.9
			c0,0-0.1-0.8-1.3-0.8L75.2,57C75.3,57.1,73.1,57.8,72.9,54.7"/>
		<path class="st2" d="M76,54.7c0,0-0.4,1.4,1.1,1.1h10.4l2.8,0.6c0,0,2.9-0.7,0-2.3c0,0-9.3,0.1-10.2-0.1l-2.3-0.6
			C77.9,53.3,76.9,52.9,76,54.7"/>
		<path class="st5" d="M76,54.7c0,0-0.4,1.4,1.1,1.1h10.4l2.8,0.6c0,0,3-0.7,0-2.3c0,0-9.3,0.1-10.2-0.1l-2.3-0.6
			C77.9,53.4,76.9,52.9,76,54.7z"/>
		<path class="st2" d="M93.4,56.1c0,0-1.9,0-1.8,2.5c0.1,0.5,0.3,1,0.7,1.4c0.4,0.4,1,0.5,1.5,0.5c0.5-0.1,1-0.4,1.3-0.8
			c0.3-0.4,0.4-1,0.3-1.5C95.4,58.2,94.3,55.7,93.4,56.1"/>
		<path class="st2" d="M94.8,55.1c0,0,0.9-1,1.5-1c0,0,10.2,0.9,11.9-0.3c0,0,1.5-0.3,1.9,0c0,0,1.5,1.2,1.5,1.9
			c0,0-0.1,0.9-1.9,0.4l-12.1,0.1C97.5,56.2,94.4,56.9,94.8,55.1"/>
		<path class="st5" d="M94.8,55.1c0,0,0.9-1,1.5-1c0,0,10.2,0.9,11.9-0.3c0,0,1.5-0.3,1.9,0c0,0,1.5,1.2,1.5,1.9
			c0,0-0.1,0.9-1.9,0.4l-12.1,0.1C97.5,56.2,94.4,56.9,94.8,55.1z"/>
		<path class="st2" d="M96.1,58.3c0,0,0-0.8,1.4-0.8l14.2-0.1c0,0,1.3,0.7,1.3-1.7c0,0,0.5-11,0.6-23.1c0-3.6,0.2-7.4,0.1-10.9
			c0,0-0.3-1.5-0.7-1.8c0,0,0-1.6,1.7-1c0,0,1.5,0.1,1.1,2.4l0.1,3.5c0,0-0.3,1.5,2.4,1.1c0,0,2.7,0.4,2.8,1.4c0,0,0.8,2-2.4,1.8
			h-2.4c-0.3,0.2-0.5,0.5-0.7,0.8c-0.1,0.3-0.2,0.7-0.1,1l-0.3,14.7c0,0-0.2,2.5,2.2,2.4c0,0,2.5-0.1,3,0.7c0,0,1.7,2.5-2,2.3
			c0,0-2.3-0.1-2.8,0.3c0,0-0.4,0.5-0.7,5.3c0,0,0.2,2.8-1.9,2.5c0,0-14.1,0.2-15.4-0.1c0,0-1.4,0.4-1.6-0.7"/>
		<path class="st2" d="M77.8,18.4l-0.3,32.4c0,0-0.1,1.5,2.4,1.8c1.2,0.2,2.4,0.2,3.6,0c0,0,1.9-0.1,6.9,0.1c0,0,1.2,1.2,1.3-0.3
			c0,0,0.8-26.2,0.4-31.7c0,0-0.1-2.3-1.8-2.4c0,0-7.7,0.6-8.4,0l-3.1-0.8C78.9,17.5,77.7,17.6,77.8,18.4z"/>
		<path class="st2" d="M93.8,20.1c0,0-0.3,15.3-0.2,15.8l-0.2,12.8L93,53.2c0,0,0.6,0.9,1.1,0.3c1.7-0.4,3.5-0.6,5.3-0.5
			c0,0,6.5,0.6,7.8-0.4c0,0,1,0.5,1.3-1.1c0,0,0.4-28.3,0.2-28.8c0.2-1.5,0.2-3,0.2-4.5c0,0-0.1-0.9-1.8-0.1c0,0,0.2,0.8-9.4,0.5
			C97.7,18.5,94.1,18.4,93.8,20.1z"/>
		<path class="st2" d="M110,19.7l-0.1,31.9c0,0,0.8,2.8,2.1,2.6c0.1-0.5,0.2-1.1,0.3-1.6l0.4-30.4C112.7,22.1,111.7,17.3,110,19.7"
			/>
		<path class="st5" d="M110,19.7l-0.1,31.9c0,0,0.8,2.8,2.1,2.6c0.2-0.5,0.3-1.1,0.3-1.6l0.4-30.4C112.7,22.1,111.7,17.2,110,19.7z"
			/>
		<path class="st3" d="M97.5,29.2c-0.3-0.8,1.7-0.9,1.7-0.9l1,0.2c0.5,0,1,0,1.4,0.2c0.1,0.1,0.2,0.3,0.2,0.5v0.5
			c0,0.2-0.1,0.3-0.2,0.4c-0.1,0.1-0.3,0.2-0.4,0.3l-0.4,1.3c-0.1,1.1,0,10.7,0,10.7c0.3,0.5,0.6,1,1,1.4c0,0.9-1.1,0.7-1.1,0.7
			l-2.9,0.1c-0.9-0.1-0.6-1.1-0.6-1.1c1-0.5,1.3-2.3,1.3-2.3v-10L97.5,29.2z"/>
		<path class="st3" d="M83.9,30.6c0.1,2.2,0.1,5.3,0.1,5.3c0.2,0.2,0.5,0.4,0.8,0.4c0.3,0.1,0.6,0.1,0.9,0c0.3-0.1,0.6-0.2,0.8-0.4
			c0.2-0.2,0.4-0.4,0.5-0.7c2.5-2.4,0-4.6-0.4-5.2s-2.4-0.1-2.4-0.1L83.9,30.6z M83.8,38.6l-0.2,3.1l0.9,1.5
			c0.6,0.8-0.4,1.4-0.4,1.4l-3.2-0.3c-0.6-0.3,0-1.3,0-1.3c0.3-0.2,0.5-0.5,0.6-0.8c0.2-0.3,0.3-0.6,0.3-1l-0.1-5.9l0.1-4.2
			c0-0.5-0.8-1.4-0.8-1.4c-0.7-0.1-0.5-1-0.5-1c0.2-0.5,1.9-0.2,1.9-0.2h4.3c4.1,1.3,3.4,4.2,3.4,4.2c0.3,2.9-2.8,4.1-2.8,4.1
			l-0.2,1.6L90,43c0.1,0.1,0.2,0.2,0.3,0.4c0.1,0.1,0.1,0.3,0.1,0.5c-0.4,1.1-2,0-2,0l-3.7-5.7C84.4,37.9,83.8,38.6,83.8,38.6"/>
		<path class="st3" d="M62.7,77.8c0.4-0.2,0.7-0.4,0.9-0.8c0.8-0.1,1.6-0.2,2.4-0.5l6.7,0.5c0,0,6.6,0.5,9.4-1.5
			c0.6,0,1.2,0.1,1.7,0.3c0,0,1.4,0.3,1.8,0.9l3.9-0.1c0,0,2.2,0.7,2,2.1v1.8c0,0-0.4,3.6,0.6,3.8h3c0,0,2.4,1.1,2.1,2.5
			c0,0.6-0.2,1.2-0.6,1.6c-0.4,0.4-0.9,0.7-1.5,0.8c-0.9,0.3-1.9,0.4-2.8,0.5c-0.4,0.6-0.7,1.3-0.8,2l-0.3,13.2c0,0-0.2,1.4,1.9,1.2
			c0,0,3.1-0.3,4.1,1.4c0,0,0.8,2.9-0.8,3.4l-1.2,0.6l-2.7,0.4c0,0-1.1,0.1-1.2,2v3.5c0,0,0.1,2.4-1.8,2.4l-2.8,0.2
			c-0.3,0.2-0.7,0.3-1,0.4c-0.4,0-0.8,0-1.1-0.2c0,0-17.3,0.3-17.9,0.1l-2,0.4c0,0-2.2,2-4.1,0.5l-1.4-1.1c-0.5,0.1-0.9,0.1-1.4,0.1
			c-0.4-0.1-19.1,0.2-19.1,0.2s-4,0.4-4.3-0.9c-0.2-1.9-0.3-3.9-0.3-5.8c0,0,0-1.5-0.9-1.6c0,0-4-0.2-4.1-0.6c0,0-2.1-1.5-1.5-3
			c0.2-0.6,0.6-1.1,1.1-1.5c0.5-0.4,1.1-0.6,1.7-0.7c0,0,3.2,0.5,3.2-0.4c0.2-0.5,0.2-1.1,0.2-1.6c0,0,0.2-12,0.1-12.8
			c0,0,0.3-1.5-1-1.5c-0.8,0.2-1.6,0.1-2.3-0.2c0,0-2.4,0.1-3-1.8c-0.2-0.7-0.2-1.5,0.2-2.2c0,0,1.1-2.2,4.4-1.5c0,0,1.8,0.5,2-0.8
			l-0.1-4.9c0,0-0.4-1.3,2.1-2c0,0,3.3,0.9,4.3-0.7c0,0,1.1-2.2,2-0.7c0,0,1.9,1.8,7.2,1.6c0,0,9.1-0.7,9.3-0.3c0,0,2.2,0.3,2.8,1
			L62.7,77.8z"/>
		<path class="st6" d="M62.7,77.7c0.4-0.2,0.7-0.4,0.9-0.8c0.8-0.1,1.6-0.2,2.4-0.5l6.7,0.5c0,0,6.6,0.5,9.4-1.5
			c0.6,0,1.2,0.1,1.7,0.3c0,0,1.4,0.3,1.8,0.9l3.9-0.1c0,0,2.2,0.7,2,2.1v1.8c0,0-0.4,3.6,0.6,3.8H95c0,0,2.4,1.1,2.1,2.5
			c0,0.6-0.2,1.2-0.6,1.6c-0.4,0.4-0.9,0.7-1.5,0.8c-0.9,0.3-1.9,0.4-2.8,0.5c-0.4,0.6-0.7,1.3-0.8,2l-0.3,13.2c0,0-0.2,1.4,1.9,1.2
			c0,0,3.1-0.3,4.1,1.4c0,0,0.8,2.9-0.8,3.4l-1.2,0.6l-2.7,0.4c0,0-1.1,0.1-1.2,2v3.5c0,0,0.1,2.4-1.8,2.4l-2.8,0.2
			c-0.3,0.2-0.7,0.3-1,0.4c-0.4,0-0.8,0-1.1-0.2c0,0-17.3,0.3-17.9,0.1l-2,0.4c0,0-2.2,2-4.1,0.5l-1.4-1.1c-0.5,0.1-0.9,0.1-1.4,0.1
			c-0.4-0.1-19.1,0.2-19.1,0.2s-4,0.4-4.3-0.9c-0.2-1.9-0.3-3.9-0.3-5.8c0,0,0-1.5-0.9-1.6c0,0-4-0.2-4.1-0.6c0,0-2.1-1.5-1.5-3
			c0.2-0.6,0.6-1.1,1.1-1.5c0.5-0.4,1.1-0.6,1.7-0.7c0,0,3.2,0.5,3.2-0.4c0.2-0.5,0.2-1.1,0.2-1.6c0,0,0.2-12,0.1-12.8
			c0,0,0.3-1.5-1-1.5c-0.8,0.2-1.6,0.1-2.3-0.2c0,0-2.4,0.1-2.9-1.8c-0.2-0.7-0.2-1.5,0.2-2.2c0,0,1.1-2.2,4.4-1.5
			c0,0,1.8,0.5,2-0.8l-0.1-4.9c0,0-0.4-1.3,2.1-2c0,0,3.2,0.9,4.3-0.7c0,0,1.1-2.2,2-0.7c0,0,1.9,1.8,7.2,1.6c0,0,9.1-0.7,9.3-0.3
			c0,0,2.2,0.3,2.8,1L62.7,77.7z"/>
		<path class="st2" d="M65.3,117.5c0.6-0.3,1.3-0.5,2-0.4C68.1,117.3,80,117,80,117s5.2,0.4,6-0.3l1.2-0.4c0.3-0.4,0.5-0.9,0.5-1.4
			c0-0.8,0.1-3.5,0.1-3.5l0.3-1c0,0-0.1-1,0-28c0.2-1.2-0.1-2.5-0.9-3.4c0,0,0-0.8,0.4-0.7s0.2,0.1,0.2,0.1s1.8-0.5,2.1,0.2
			c0,0,0.8,2.4,0.1,3.8c0,0-0.2,3,1.3,3c0.3,0.2,0.6,0.3,0.9,0.4c0.3,0.1,0.7,0,1-0.1c0,0,2.6,0.3,2.6,1.1c0,0.2,0,0.5-0.1,0.7
			c-0.1,0.2-0.2,0.4-0.4,0.5l-0.6,0.3c-0.2,0.1-0.5,0.1-0.7,0l-2.4,0.2c-0.5,0.1-0.9,0.4-1.2,0.8c-0.3,0.4-0.4,0.9-0.3,1.4
			c0.2,1.9-0.1,15.7-0.1,15.7s0,1.6,2.5,1.5c0,0,3.1-0.1,3.1,0.8c0.4,0.7,0.1,1.6-0.6,1.9c-0.2,0.1-0.5,0.2-0.8,0.2
			c0,0-4.3-0.1-4,1.1c-0.1,1.1-0.3,2.2-0.5,3.3c0,0,0.4,2.3-0.1,2.7c0,0-0.3,1.3-3,1.1c0,0-17.5-0.1-20.2,0.1
			C66.5,119.1,64.9,118.9,65.3,117.5"/>
		<path class="st2" d="M62.2,115.6c0.5,0.1,0.9,0.3,1.2,0.7c0.3,0.4,0.5,0.8,0.5,1.3c0,1.6,0.1,2.5-0.9,2.7
			c-0.3,0.1-0.5,0.1-0.8,0.1c-0.2,0-0.5-0.1-0.7-0.2c-0.2-0.1-0.4-0.3-0.6-0.5c-0.2-0.2-0.3-0.4-0.3-0.7
			C60.2,117.5,60.7,115.9,62.2,115.6z"/>
		<path class="st2" d="M64.2,114.8c0,0,1.8-1.2,2.5-1c0,0,9.2,0.6,12.1,0.1s1.1-0.1,1.1-0.1s2.4,0,3.1-0.9c0.2,0,0.5,0,0.7,0.1
			c0.2,0.1,0.4,0.2,0.5,0.4l1.5,1.6c0,0,0.1,1-1.6,0.9c0,0-16.6,0-17.1,0.1C67,116,63.9,116.5,64.2,114.8"/>
		<path class="st5" d="M64.2,114.8c0,0,1.8-1.2,2.5-1c0,0,9.3,0.6,12.1,0.1s1.1-0.1,1.1-0.1s2.4,0,3.2-0.9c0.2,0,0.4,0,0.6,0.1
			c0.2,0.1,0.4,0.2,0.5,0.4l1.5,1.6c0,0,0.1,1-1.6,0.9c0,0-16.6,0-17.1,0.1C67,116,63.9,116.5,64.2,114.8z"/>
		<path class="st2" d="M40.1,79c0,0,0.7,0,0.6,1.2l-0.2,30.5c0.1,0.6,0,1.3-0.3,1.8c-0.2,0.6-0.6,1.1-1.1,1.5c0,0-0.9,1.1-0.9-0.6
			l0.4-31.1C38.6,82.3,38.7,80,40.1,79"/>
		<path class="st5" d="M40.1,79c0,0,0.7,0,0.6,1.2l-0.2,30.5c0.1,0.6,0,1.3-0.3,1.9c-0.2,0.6-0.6,1.1-1.1,1.5c0,0-0.9,1.1-0.9-0.6
			l0.4-31.1C38.6,82.3,38.7,80,40.1,79z"/>
		<path class="st2" d="M38.5,79.2c0,0-1.2,2.2-1.1,2.7l-0.1,6.8c0,0-0.1,4.3,0,4.8s-0.1,13.2-0.1,13.2s-0.1,2.4,0,3.2v5.4
			c0,0-0.2,2.4,1.6,1.8c0,0,17.9-0.4,19-0.1c0,0,1.6,0.3,1,1.1c0,0,0,0.7-1.1,0.5c-5.3,0.5-10.7,0.6-16,0.5c0,0-5.1,0.3-5.4-0.3
			c0,0-0.8-0.1-0.8-3c0-1.1,0-2.1-0.2-3.2c0,0,0.2-1.4-2.3-1.7c0,0-3.6,0.6-3.7-1.5c0,0,0.5-1.5,4-1.3c0,0,2.5,0.4,2-1.6l0.3-14.9
			c0,0,0.3-2.6-1.4-2.7c-0.7,0-1.4,0-2.1,0.1c0,0-2.9,0-2.7-1.7c0,0,1-1.8,4-1.4c1.1,0.2,2.1-0.5,2.3-1.5c0-0.2,0-0.4,0-0.6
			c0,0-0.1-5.2,1.1-5.4C36.7,78.4,39.2,78.5,38.5,79.2"/>
		<path class="st2" d="M41.5,112.6c0.5,0.5,1.1,0.8,1.7,1.1c0.6,0.3,1.3,0.4,2,0.3l13.8,0.2c0,0,1.5,0.1,1.4,0.9c0,0-0.2,1.2-2,0.8
			l-16.6-0.2l-1.8,0.1c0,0-1.2-0.2,0.7-2.5L41.5,112.6z"/>
		<path class="st5" d="M41.5,112.6c0.5,0.5,1.1,0.8,1.7,1.1c0.6,0.3,1.3,0.4,2,0.3l13.8,0.2c0,0,1.5,0.1,1.4,0.9c0,0-0.2,1.2-2,0.8
			l-16.7-0.2l-1.8,0.1c0,0-1.2-0.2,0.7-2.5L41.5,112.6z"/>
		<path class="st2" d="M84.2,111.3c0,0,1.2,2.3,1.8,2.6c0,0,1.1,1.3,0.8-1L87,83.8c-0.2-0.9-0.2-1.7,0-2.6L85.8,79
			c0,0-1.3-1-1.3,0.6l-0.2,31L84.2,111.3z"/>
		<path class="st5" d="M84.2,111.3c0,0,1.2,2.3,1.8,2.6c0,0,1.1,1.3,0.8-1L87,83.8c-0.2-0.9-0.2-1.7,0-2.6L85.8,79
			c0,0-1.3-1-1.3,0.6l-0.2,31L84.2,111.3z"/>
		<path class="st2" d="M61.7,97.4c0,1.6,0,3.1-0.2,4.7c-0.2,1.3,0.4,7.2-0.1,10.2c0,0-0.1,1-2.2,0.1c0,0-13,0.3-13.4-0.1
			c0,0-3.6,0.1-3.9-1.7c0,0,0.5-13.8,0.2-14.3c0,0-0.2-7.6,0-8.3c0,0,0.3-7,0.1-7.8c0.1-0.8,0-1.6-0.2-2.4c0,0,0-1,1.7-0.4
			c0,0,0.6,1.1,4,0.6c1.6,0.2,3.2,0.3,4.8,0.1c0,0,5.2-0.4,6.5,0c0.6-0.1,1.2,0,1.7,0.4c0.5,0.3,0.8,0.9,0.9,1.5l-0.1,6.3l0.6,2
			l0.7-0.5l0.3-1.5l0.1-6.7c0.2-0.4,0.5-0.7,0.8-1c0.3-0.3,0.8-0.4,1.2-0.4c1-0.1,2-0.2,3-0.1c2.5,0.3,4.9,0.4,7.4,0.2
			c1.5-0.3,1.8,1,6.4-1.3c0,0,1.2,0.1,1.2,0.9c0,0-0.4,8.6,0,10.2c0,0,0,15.8-0.3,16.9l0.2,5c0,0,0.2,2.2-3.3,2.4
			c0,0,2.2,0.3-11.8-0.1c-1.6,0-3.2,0.3-4.7,1c0,0-0.5-0.1-0.5-1.4c0.2-3.1,0.2-6.3,0-9.4l-0.2-5.2L61.7,97.4z"/>
		<path class="st3" d="M52.5,90.3c0,0,0.3,7.5,0,8.5l-0.1,1.6c0.2,0.6,0.6,1.1,1,1.5c0,0,0.5,1.4-0.7,1.3c-1-0.1-2.1-0.1-3.1-0.1
			c0,0-1.4,0,0-1.8c0.4-0.8,0.5-1.6,0.4-2.5c0,0,0-8.5,0.2-9c0,0,0.2-1.1-0.5-1.4l-1.2,0.1L47,89.9c0,0-0.3,1.5-1-0.1V89l0.9-2.4
			l0.6-0.1c0.5,0.4,1.1,0.6,1.7,0.8H54l1.7-0.8c0,0,0.7,0.1,0.5,1c0,0,0.3,2.3-1,2.6c-0.3-0.1-0.6-0.3-0.8-0.6
			c-0.2-0.2-0.4-0.5-0.5-0.8C53.9,88.6,52.6,87.9,52.5,90.3"/>
		<path class="st3" d="M74.9,87.5c-0.5,0-1,0-1.5,0.2c-0.5,0.2-0.9,0.5-1.3,0.8c-0.4,0.4-0.7,0.8-0.9,1.3c-0.2,0.5-0.3,1-0.2,1.5
			c0,0-0.4,2.8,3.9,4.7c0,0,3.2,1.5,2.9,3.4c0,0-0.4,3.4-3.7,1.7c0,0-1.6-0.8-1.5-1.7c0,0-0.5-1.1-1.1-0.9c0,0-0.7,0.2-0.4,3.5
			c0,0,0,1.3,1.5,0l0.8,0.2c1.5,1.3,3.8,1,5.1-0.5c1.4-1.3,1.7-3.5,0.7-5.1c-0.9-1.3-2.2-2.3-3.7-3c0,0-2.2-1-2.7-2.7
			c0,0,0.7-3,3.4-1.4c0.5,0.5,1,1,1.6,1.4c0,0,0.8,0,0.6-1.8l-0.2-1.5c0,0-0.2-1.1-1.6,0C76.6,87.6,75.3,88.1,74.9,87.5"/>
		<path class="st3" d="M60.9,92.1c-0.1,0.5-0.8,3.3-0.8,3.3l0.6,1c0,0,1.6,0.1,2.2,0.1s0.7-0.5,0.7-1c-0.3-1.2-0.7-2.4-1.1-3.5
			L62,91.4L60.9,92.1z M62.6,85.4c0.5,0.4,0.7,0.9,0.8,1.5c1.5,4.3,2.7,8.7,3.7,13.1c0.4,0.7,0.9,1.3,1.4,1.8c1.7,0.6,0,1.1,0,1.1
			c-1,0.1-2,0.1-3-0.1c-1.2-0.2-0.7-0.6-0.7-0.6c0.5-0.5,0.1-2.5,0.1-2.5c-0.2-0.8-0.5-1.5-1-2.1c-0.4-0.2-1.1,0.7-1.1,0.7
			s-1.1,0.4-1.2,0s-0.8-0.8-0.8-0.8c-1.2,0-1.7,3-1.7,3c0.7,2.5,0,2.1,0,2.1c-0.6,0.8-2.5,0.2-2.5,0.2c-0.9-0.2-0.3-0.9-0.3-0.9
			c0.7-0.2,1.2-0.7,1.4-1.4c0.5-0.7,3.7-13.8,3.7-13.8C61.6,86.1,61.8,84.9,62.6,85.4"/>
		<path class="st3" d="M35,61c0,0-1.1,3.5-6.1-0.1l-17-0.4c-0.9,0.4-2-0.1-2.4-1.1c-0.1-0.2-0.1-0.4-0.1-0.5c0.2-1.7,0.2-3.3,0.2-5
			c0,0,0.1-1.3-2.1-1.3c0,0-3.4,0.4-3.5-2.6c0,0-0.6-3.2,4.2-3.1c0,0,1.5,0.7,1.6-1.2c0,0-0.2-13.1-0.1-14.1c0,0,0.4-1.2-1.9-1.4
			c0,0-3.4,0.7-3.7-1.5c0,0-0.2-3.3,2-3.5c0,0,2.7,0.2,3.2-0.5c0,0,0.6,0.4,0.5-2l0.1-4.2c0,0,0.3-1.1,2-1c0,0,3.2,0.2,3.6-0.1
			s0.6-0.9,0.9-1.3c0,0,1.6-0.1,1.9,0.3c0,0,2.4,1.6,11.7,1c0,0,1.4,0,1.7,0.4c0,0,1.7,1.3,2.7-0.1c2-0.3,4.1-0.3,6.1-0.2
			c0,0,5,1.3,8.4-1.5l1.1,0.2c0,0,1.4,2.3,2.4,1.6c0,0,3-0.3,3.6,0.3c0,0,1,1.5,0.5,5.5c0,0-0.6,1.7,2.3,1.7c0,0,3.4-0.6,3,2.5
			c0,0,0.9,3.5-4.7,3c-0.4,0.5-0.6,1.1-0.6,1.7c0,0-0.1,11.5-0.2,12.8c0,0-0.1,1.8,2.3,1.7c0,0,3.2-0.2,3.3,2.7c0,0,0.4,3.8-4.3,3.1
			c0,0-1.4,0.2-1.6,1.1l-0.2,5c0,0,0.1,2.5-2.7,1.9c-0.4,0-15.8,0.3-17.2-0.1C36,60.7,35.2,60.6,35,61"/>
		<path class="st4" d="M35,61c0,0-1.1,3.5-6.1-0.1l-17-0.4c-0.9,0.4-2-0.1-2.4-1.1c-0.1-0.2-0.1-0.4-0.1-0.5c0.2-1.7,0.2-3.3,0.2-5
			c0,0,0.1-1.3-2.1-1.3c0,0-3.4,0.4-3.5-2.6c0,0-0.6-3.2,4.2-3.1c0,0,1.5,0.7,1.6-1.2c0,0-0.2-13.1-0.1-14.1c0,0,0.4-1.2-1.9-1.4
			c0,0-3.4,0.7-3.7-1.5c0,0-0.2-3.3,2-3.5c0,0,2.7,0.2,3.2-0.5c0,0,0.6,0.4,0.5-2l0.1-4.2c0,0,0.3-1.1,2-1c0,0,3.2,0.2,3.6-0.1
			s0.6-0.9,0.9-1.3c0,0,1.6-0.1,1.9,0.3c0,0,2.4,1.6,11.7,1c0,0,1.4,0,1.7,0.4c0,0,1.7,1.3,2.7-0.1c2-0.3,4.1-0.3,6.1-0.2
			c0,0,5,1.3,8.4-1.5l1.1,0.2c0,0,1.4,2.3,2.4,1.6c0,0,3-0.3,3.6,0.3c0,0,1,1.5,0.5,5.5c0,0-0.6,1.7,2.3,1.7c0,0,3.4-0.6,3,2.5
			c0,0,0.9,3.5-4.7,3c-0.4,0.5-0.6,1.1-0.6,1.7c0,0-0.1,11.5-0.2,12.8c0,0-0.1,1.8,2.3,1.7c0,0,3.2-0.2,3.4,2.7c0,0,0.4,3.8-4.3,3.1
			c0,0-1.4,0.2-1.6,1.1l-0.2,5c0,0,0.1,2.5-2.7,1.9c-0.4,0-15.8,0.3-17.2-0.1C36,60.7,35.2,60.6,35,61z"/>
		<path class="st2" d="M15.8,19.4c0,0,0.2,2,0.2,2.5s-0.3,29.2-0.3,29.2c0.1,0.6,0,1.3-0.3,1.9c-0.3,0.6-0.7,1.1-1.3,1.4
			c0,0-0.5,0.2-0.6-1.2l0.2-30.3C13.7,22.9,13.9,19.2,15.8,19.4"/>
		<path class="st5" d="M15.9,19.4c0,0,0.2,2,0.2,2.5s-0.3,29.2-0.3,29.2c0.1,0.6,0,1.3-0.3,1.9c-0.3,0.6-0.7,1.1-1.3,1.4
			c0,0-0.5,0.2-0.6-1.2l0.2-30.3C13.7,22.9,13.9,19.2,15.9,19.4z"/>
		<path class="st2" d="M12.5,54.7c0,0,0.2-28.5,0.1-29s0.1,0.4,0.1,0.4s-0.3-4.9,1-7c0,0-0.4-1.7-2.7,0.4l-0.1,4.1
			c0,0,0,2.3-2.1,2.2c0,0-2.4-0.1-3.6,1c0,0-0.6,2.2,1.7,1.8c0,0,3.7,0,3.9,1.5l-0.2,15.4c0.4,0.9-0.1,2-1,2.4C9.3,48,9,48.1,8.6,48
			c0,0-3.4-0.2-3.4,1.9c0,0,0.7,1.8,3.7,1.2c1.2,0.2,2,1.2,2,2.4v3.8c0,0-0.2,1.5,1.8,1.6h15.8c0,0,0.8,0.1,0.8-0.9
			c0,0-0.1-0.8-1.3-0.8L14.8,57C14.8,57.1,12.7,57.8,12.5,54.7z"/>
		<path class="st2" d="M15.2,54.9c0,0-0.4,1.4,1.1,1.1h10.5l2.8,0.6c0,0,3-0.7,0-2.3c0,0-9.3,0.1-10.2-0.1l-2.3-0.6
			C17.2,53.6,16.1,53.2,15.2,54.9"/>
		<path class="st5" d="M15.2,54.9c0,0-0.4,1.4,1.1,1.1h10.5l2.9,0.6c0,0,3-0.7,0-2.3c0,0-9.3,0.1-10.2-0.1l-2.3-0.6
			C17.2,53.6,16.1,53.2,15.2,54.9z"/>
		<path class="st2" d="M32.6,56.4c0,0-2,0-1.8,2.5c0.1,0.5,0.3,1,0.7,1.4c0.4,0.4,1,0.5,1.5,0.5c0.5-0.1,1-0.4,1.3-0.8
			c0.3-0.4,0.4-1,0.3-1.5C34.6,58.4,33.5,55.9,32.6,56.4"/>
		<path class="st2" d="M34,55.3c0,0,0.9-1,1.5-1c0,0,10.2,0.9,11.9-0.3c0,0,1.5-0.3,1.9,0c0,0,1.5,1.2,1.5,1.9c0,0-0.1,0.9-1.9,0.4
			l-12.1,0.1C36.8,56.4,33.7,57.2,34,55.3"/>
		<path class="st5" d="M34,55.3c0,0,0.9-1,1.5-1c0,0,10.2,0.9,11.9-0.3c0,0,1.5-0.3,1.9,0c0,0,1.5,1.2,1.5,1.9c0,0-0.1,0.9-1.9,0.4
			l-12.1,0.1C36.8,56.4,33.7,57.1,34,55.3z"/>
		<path class="st2" d="M35.7,58.3c0,0,0-0.8,1.4-0.8l14.2-0.1c0,0,1.3,0.7,1.3-1.7c0,0,0.5-11,0.6-23.1c0-3.6,0.2-7.4,0-10.9
			c0,0-0.3-1.5-0.7-1.8c0,0,0-1.6,1.7-1c0,0,1.5,0.1,1.1,2.4l0.1,3.5c0,0-0.3,1.5,2.4,1.1c0,0,2.7,0.4,2.8,1.4c0,0,0.8,2-2.4,1.8
			h-2.3c-0.3,0.2-0.5,0.5-0.7,0.8c-0.1,0.3-0.2,0.7-0.1,1l-0.3,14.6c0,0-0.2,2.5,2.2,2.4c0,0,2.5-0.1,3,0.7c0,0,1.7,2.5-2,2.3
			c0,0-2.3-0.1-2.8,0.3c0,0-0.4,0.5-0.7,5.3c0,0,0.2,2.8-1.9,2.5c0,0-14.1,0.2-15.4-0.1C37.2,59,35.8,59.5,35.7,58.3"/>
		<path class="st2" d="M17.4,18.4l-0.3,32.4c0,0-0.1,1.5,2.4,1.8c1.2,0.2,2.5,0.2,3.7,0c0,0,1.9-0.1,6.9,0.1c0,0,1.2,1.2,1.3-0.3
			c0,0,0.8-26.3,0.4-31.7c0,0-0.1-2.3-1.8-2.4c0,0-7.7,0.6-8.4,0l-3-0.8C18.5,17.5,17.3,17.6,17.4,18.4z"/>
		<path class="st2" d="M49.6,19.7l-0.1,31.9c0,0,0.8,2.8,2.1,2.5c0.2-0.5,0.3-1.1,0.3-1.6l0.4-30.4C52.3,22.1,51.3,17.2,49.6,19.7"
			/>
		<path class="st5" d="M49.6,19.7l-0.1,31.9c0,0,0.8,2.8,2.1,2.5c0.2-0.5,0.3-1.1,0.3-1.6l0.4-30.4C52.3,22.1,51.3,17.2,49.6,19.7"
			/>
		<path class="st5" d="M49.6,19.7l-0.1,31.9c0,0,0.8,2.8,2.1,2.5c0.2-0.5,0.3-1.1,0.3-1.6l0.4-30.4C52.3,22.1,51.3,17.2,49.6,19.7z"
			/>
		<path class="st2" d="M33.4,19.9c0,0-0.3,15.2-0.2,15.8L33,48.5L32.6,53c0,0,0.6,0.9,1.1,0.3c1.7-0.4,3.5-0.6,5.3-0.5
			c0,0,6.5,0.6,7.8-0.4c0,0,1,0.5,1.3-1.1c0,0,0.4-28.3,0.2-28.8c0.2-1.5,0.2-3,0.2-4.5c0,0-0.1-0.9-1.8-0.1c0,0,0.2,0.8-9.5,0.5
			C37.3,18.4,33.6,18.3,33.4,19.9"/>
		<path class="st3" d="M30.3,29.3l-0.9,1.9c0,0-2.2,9.8-3.4,11.8c0,0-0.2,2-1.9,0.4c0,0-4-12.4-4.2-12.8l-1.3-0.9
			c0,0-0.8-1.1,0.6-1.2l3.7,0.1c0,0,1.2,1-0.4,2.1c0.6,2.7,1.3,5.3,2.3,7.8c0,0,0.6,2.3,1.3,0.6l2.1-7.2l-0.6-2.1c0,0-0.6-1,0.3-1.1
			C27.8,28.6,30,28.4,30.3,29.3"/>
		<path class="st3" d="M36.2,30.9l-0.1,10.7l-0.3,0.8c0,0-1,1.3-0.3,1.4c0,0-0.9,0.6,6.5,0.7c0,0,2.9,0.5,2.1-3.1
			c0,0-0.3-1.3-1.3,0.6c0,0-0.3,1.6-3.9,1.1c-0.4-0.4-0.7-0.9-0.8-1.5v-4.5c0,0-0.1-1.1,1.6-1c0,0,1.9,1.2,2.2,0.7
			c0,0,0.7-1.6,0-2.6c0,0-0.9-0.1-1,0.3c0,0-0.6,1.2-2.3,0.5c-0.4-0.9-0.6-1.9-0.3-2.9c0,0-0.2-2.5,1.5-2.3c0,0,2,0.4,2.2,1
			c0,0,0.5,1.2,1-0.2l-0.5-1.7c0,0-0.3-0.7-0.8-0.5c0,0-3.4,0.5-3.9,0.1l-2.7,0.3c0,0.2-0.1,0.3-0.1,0.5s0.1,0.3,0.1,0.4
			s0.2,0.3,0.3,0.4c0.1,0.1,0.2,0.2,0.4,0.2c0.1,0.1,0.2,0.2,0.2,0.3C36.2,30.7,36.2,30.8,36.2,30.9"/>
	</g>
</g>
</svg>
