<?xml version="1.0" encoding="utf-8"?>
<!-- Generator: Adobe Illustrator 23.1.1, SVG Export Plug-In . SVG Version: 6.00 Build 0)  -->
<svg version="1.1" id="efaf6d37-ad8b-408b-a167-fb47e2b6544c"
	 xmlns="http://www.w3.org/2000/svg" xmlns:xlink="http://www.w3.org/1999/xlink" x="0px" y="0px" viewBox="0 0 1142 959.8"
	 style="enable-background:new 0 0 1142 959.8;" xml:space="preserve">
<style type="text/css">
	.st0{fill:url(#SVGID_1_);}
	.st1{fill:#FFFFFF;}
	.st2{fill:#F3AEAE;}
	.st3{clip-path:url(#SVGID_3_);}
	.st4{fill:url(#SVGID_4_);}
	.st5{opacity:0.1;enable-background:new    ;}
	.st6{fill:#FF5252;}
</style>
<title>Map dark</title>
<linearGradient id="SVGID_1_" gradientUnits="userSpaceOnUse" x1="535.451" y1="180.756" x2="535.451" y2="855.093" gradientTransform="matrix(1 0 0 -1 0 960)">
	<stop  offset="0" style="stop-color:#808080;stop-opacity:0.25"/>
	<stop  offset="0.5351" style="stop-color:#808080;stop-opacity:0.12"/>
	<stop  offset="1" style="stop-color:#808080;stop-opacity:0.1"/>
</linearGradient>
<polygon class="st0" points="829.1,752.8 669.3,752.8 397.2,779.2 123,752.8 123,104.9 396,124.7 675,104.9 948,142.4 940.9,639.9 
	"/>
<polygon class="st1" points="823.9,743.8 667.6,743.8 401.4,769.5 133.2,743.8 133.2,113.4 400.3,132.7 673.2,113.4 940.1,149.9 
	933.3,634 "/>
<polygon class="st2" points="824.7,726.6 660.2,726.6 409.1,750.9 156.1,726.6 156.1,132 408,150.2 665.4,132 917.2,166.4 
	917.2,633.6 "/>
<g>
	<defs>
		<polygon id="SVGID_2_" points="824.7,726.6 660.2,726.6 409.1,750.9 156.1,726.6 156.1,132 408,150.2 665.4,132 917.2,166.4 
			917.2,633.6 		"/>
	</defs>
	<clipPath id="SVGID_3_">
		<use xlink:href="#SVGID_2_"  style="overflow:visible;"/>
	</clipPath>
	<g class="st3">
		<polygon class="st1" points="1142,905.1 564.1,585.1 710.9,97.3 660.9,77.5 589.8,313.9 23,0 0,54.6 572.4,371.6 441.7,805.8 
			491.7,825.6 546.7,642.8 1119.1,959.8 		"/>
	</g>
</g>
<linearGradient id="SVGID_4_" gradientUnits="userSpaceOnUse" x1="873.186" y1="217.189" x2="873.186" y2="339.924" gradientTransform="matrix(1 0 0 -1 0 960)">
	<stop  offset="0" style="stop-color:#000000;stop-opacity:0.12"/>
	<stop  offset="0.5513" style="stop-color:#000000;stop-opacity:9.000000e-02"/>
	<stop  offset="1" style="stop-color:#000000;stop-opacity:2.000000e-02"/>
</linearGradient>
<polygon class="st4" points="813.1,742.8 815,620.1 933.3,624.8 "/>
<polygon class="st1" points="156.1,389 518.8,549.6 543,599.6 519,624.6 156.1,452.5 "/>
<polygon class="st1" points="823.9,742.8 825.6,629.6 933.3,634 "/>
<polygon class="st1" points="649,647.6 800.3,150.5 860.5,158.7 691,673.6 "/>
<polyline class="st5" points="408,750.9 660,726.6 660,132 408,150.2 "/>
<path class="st6" d="M638.8,348.4c0,48-87,184-87,184s-87-136-87-184c0-48,38.9-87,87-87C599.9,261.5,638.8,300.4,638.8,348.4
	C638.8,348.4,638.8,348.4,638.8,348.4L638.8,348.4z"/>
<circle class="st1" cx="551.8" cy="342.4" r="26.3"/>
<polygon class="st1" points="784.7,389 917.2,423 917.2,486.5 755,428.6 "/>
<polygon class="st1" points="279.4,511 246,742.6 284,750.6 334,536.9 334,506.6 "/>
<polygon class="st1" points="278.1,208.6 240.5,426.4 269.6,442.1 339,208.6 "/>
<circle class="st6" cx="350" cy="165.6" r="8"/>
<ellipse transform="matrix(0.1602 -0.9871 0.9871 0.1602 -358.8194 737.4094)" class="st6" cx="254" cy="579.6" rx="8" ry="8"/>
<circle class="st6" cx="246" cy="638.6" r="8"/>
<circle class="st6" cx="331" cy="624.6" r="8"/>
<circle class="st6" cx="194" cy="384.6" r="8"/>
<circle class="st6" cx="824" cy="376.6" r="8"/>
<circle class="st6" cx="755" cy="654.6" r="8"/>
</svg>
