<?xml version="1.0" encoding="utf-8"?>
<!-- Generator: Adobe Illustrator 23.1.1, SVG Export Plug-In . SVG Version: 6.00 Build 0)  -->
<svg version="1.1" id="e6acf613-1465-4206-8e97-2c0e8d4b1ea6"
	 xmlns="http://www.w3.org/2000/svg" xmlns:xlink="http://www.w3.org/1999/xlink" x="0px" y="0px" viewBox="0 0 887.6 794.7"
	 style="enable-background:new 0 0 887.6 794.7;" xml:space="preserve">
<style type="text/css">
	.st0{fill:url(#SVGID_1_);}
	.st1{fill:url(#SVGID_2_);}
	.st2{fill:url(#SVGID_3_);}
	.st3{fill:#F5F5F5;}
	.st4{fill:#FFFFFF;}
	.st5{opacity:0.3;fill:#F3AEAE;enable-background:new    ;}
	.st6{fill:url(#SVGID_4_);}
	.st7{fill:url(#SVGID_5_);}
	.st8{fill:#F3AEAE;}
	.st9{fill:url(#SVGID_6_);}
	.st10{fill:url(#SVGID_7_);}
</style>
<title>Map light</title>
<linearGradient id="SVGID_1_" gradientUnits="userSpaceOnUse" x1="148.905" y1="-0.699" x2="148.905" y2="728.366" gradientTransform="matrix(1 0 0 -1 0 794)">
	<stop  offset="0" style="stop-color:#808080;stop-opacity:0.25"/>
	<stop  offset="0.5351" style="stop-color:#808080;stop-opacity:0.12"/>
	<stop  offset="1" style="stop-color:#808080;stop-opacity:0.1"/>
</linearGradient>
<polygon class="st0" points="297.8,766.7 0,794.7 0,93.6 297.8,65.6 "/>
<linearGradient id="SVGID_2_" gradientUnits="userSpaceOnUse" x1="446.7155" y1="-0.699" x2="446.7155" y2="728.366" gradientTransform="matrix(1 0 0 -1 0 794)">
	<stop  offset="0" style="stop-color:#808080;stop-opacity:0.25"/>
	<stop  offset="0.5351" style="stop-color:#808080;stop-opacity:0.12"/>
	<stop  offset="1" style="stop-color:#808080;stop-opacity:0.1"/>
</linearGradient>
<polygon class="st1" points="297.8,766.7 595.6,794.7 595.6,93.6 297.8,65.6 "/>
<linearGradient id="SVGID_3_" gradientUnits="userSpaceOnUse" x1="741.606" y1="-0.699" x2="741.606" y2="728.366" gradientTransform="matrix(1 0 0 -1 0 794)">
	<stop  offset="0" style="stop-color:#808080;stop-opacity:0.25"/>
	<stop  offset="0.5351" style="stop-color:#808080;stop-opacity:0.12"/>
	<stop  offset="1" style="stop-color:#808080;stop-opacity:0.1"/>
</linearGradient>
<polygon class="st2" points="887.6,766.7 595.6,794.7 595.6,93.6 887.6,65.6 "/>
<polygon class="st3" points="298.9,747.3 9.5,774.1 9.5,100.5 298.9,73.6 "/>
<polygon class="st4" points="298.9,747.3 588.2,774.1 588.2,100.5 298.9,73.6 "/>
<polygon class="st3" points="877.6,747.3 588.2,774.1 588.2,100.5 877.6,73.6 "/>
<polygon class="st5" points="298.9,135.5 79.1,143.2 79.1,173.3 79.1,214.4 79.1,244.4 265.7,244.4 265.7,207.8 298.9,206.7 
	349.5,222.3 349.5,151.1 "/>
<polygon class="st5" points="298.9,701.4 52.2,725.1 52.2,635 298.9,611.3 "/>
<polygon class="st5" points="271.9,422.4 25.2,446.1 25.2,356 271.9,332.3 "/>
<rect x="444.3" y="631.8" class="st5" width="107.5" height="82.2"/>
<rect x="409.3" y="438.8" class="st5" width="107.5" height="82.2"/>
<rect x="453.3" y="181.8" class="st5" width="107.5" height="82.2"/>
<polygon class="st5" points="836.5,676.1 668.9,690.3 668.9,581.2 836.5,567 "/>
<polygon class="st5" points="816.5,292.1 648.9,306.3 648.9,197.2 816.5,183 "/>
<linearGradient id="SVGID_4_" gradientUnits="userSpaceOnUse" x1="889.9" y1="502.0627" x2="889.9" y2="722.7936" gradientTransform="matrix(1 0 0 -1 -156.2047 741.3497)">
	<stop  offset="0" style="stop-color:#B3B3B3;stop-opacity:0.25"/>
	<stop  offset="0.5351" style="stop-color:#B3B3B3;stop-opacity:0.1"/>
	<stop  offset="1" style="stop-color:#B3B3B3;stop-opacity:5.000000e-02"/>
</linearGradient>
<path class="st6" d="M802.1,89.4c0,39.1-68.4,149.9-68.4,149.9s-68.4-110.8-68.4-149.9s30.6-70.8,68.4-70.8S802.1,50.3,802.1,89.4z"
	/>
<linearGradient id="SVGID_5_" gradientUnits="userSpaceOnUse" x1="733.6953" y1="688.1398" x2="733.6953" y2="730.9682" gradientTransform="matrix(1 0 0 -1 0 794)">
	<stop  offset="0" style="stop-color:#000000;stop-opacity:0.12"/>
	<stop  offset="0.5513" style="stop-color:#000000;stop-opacity:9.000000e-02"/>
	<stop  offset="1" style="stop-color:#000000;stop-opacity:2.000000e-02"/>
</linearGradient>
<ellipse class="st7" cx="733.7" cy="84.4" rx="20.7" ry="21.4"/>
<path class="st8" d="M797,89.5c0,34.9-63.3,133.9-63.3,133.9s-63.3-99-63.3-133.9c0-34.9,28.3-63.3,63.2-63.3
	C768.6,26.2,797,54.5,797,89.5C797,89.5,797,89.5,797,89.5z"/>
<circle class="st4" cx="733.7" cy="85.1" r="19.1"/>
<linearGradient id="SVGID_6_" gradientUnits="userSpaceOnUse" x1="311.1462" y1="57.719" x2="311.1462" y2="280.0101" gradientTransform="matrix(1 0 0 -1 -156.2047 741.3497)">
	<stop  offset="0" style="stop-color:#B3B3B3;stop-opacity:0.25"/>
	<stop  offset="0.5351" style="stop-color:#B3B3B3;stop-opacity:0.1"/>
	<stop  offset="1" style="stop-color:#B3B3B3;stop-opacity:5.000000e-02"/>
</linearGradient>
<path class="st9" d="M225.4,532.7c0,39.4-70.4,151-70.4,151s-70.4-111.6-70.4-151s31.5-71.3,70.4-71.3S225.4,493.3,225.4,532.7z"/>
<linearGradient id="SVGID_7_" gradientUnits="userSpaceOnUse" x1="154.9415" y1="244.7393" x2="154.9415" y2="287.8704" gradientTransform="matrix(1 0 0 -1 0 794)">
	<stop  offset="5.410000e-03" style="stop-color:#000000;stop-opacity:0.12"/>
	<stop  offset="0.5513" style="stop-color:#000000;stop-opacity:9.000000e-02"/>
	<stop  offset="1" style="stop-color:#000000;stop-opacity:5.000000e-02"/>
</linearGradient>
<ellipse class="st10" cx="154.9" cy="527.7" rx="21.3" ry="21.6"/>
<path class="st8" d="M218.2,532.3c0,34.9-63.3,133.9-63.3,133.9s-63.3-99-63.3-133.9S120,469,154.9,469S218.2,497.3,218.2,532.3
	L218.2,532.3z"/>
<circle class="st4" cx="154.9" cy="527.9" r="19.1"/>
<path class="st8" d="M561.2,537.3c0,34.9-63.3,133.9-63.3,133.9s-63.3-99-63.3-133.9c0-34.9,28.3-63.3,63.2-63.3
	C532.9,474,561.2,502.3,561.2,537.3C561.2,537.2,561.2,537.3,561.2,537.3z"/>
<circle class="st4" cx="497.9" cy="532.9" r="19.1"/>
<path class="st8" d="M809.2,497.3c0,34.9-63.3,133.9-63.3,133.9s-63.3-99-63.3-133.9S711,434,745.9,434S809.2,462.3,809.2,497.3z"/>
<circle class="st4" cx="745.9" cy="492.9" r="19.1"/>
<path class="st8" d="M250.2,63.3c0,34.9-63.3,133.9-63.3,133.9s-63.3-99-63.3-133.9C123.6,28.3,152,0,186.9,0
	C221.9,0,250.2,28.3,250.2,63.3C250.2,63.2,250.2,63.3,250.2,63.3L250.2,63.3z"/>
<circle class="st4" cx="186.9" cy="58.9" r="19.1"/>
</svg>
