<?xml version="1.0" encoding="utf-8"?>
<!-- Generator: Adobe Illustrator 23.1.1, SVG Export Plug-In . SVG Version: 6.00 Build 0)  -->
<svg version="1.1" id="aca3dd23-1327-4457-bb54-cb32560b3b43"
	 xmlns="http://www.w3.org/2000/svg" xmlns:xlink="http://www.w3.org/1999/xlink" x="0px" y="0px" viewBox="0 0 725.8 764.6"
	 style="enable-background:new 0 0 725.8 764.6;" xml:space="preserve">
<style type="text/css">
	.st0{fill:#3F3D56;}
	.st1{opacity:0.2;enable-background:new    ;}
	.st2{fill:#F3AEAE;}
	.st3{fill:#2F2E41;}
	.st4{fill:#FBBEBE;}
	.st5{fill:#575A89;}
</style>
<title>my_location</title>
<path class="st0" d="M519,169.2h-3.9V62c0-34.3-27.8-62-62-62c0,0,0,0,0,0H226c-34.3,0-62,27.8-62,62c0,0,0,0,0,0v588
	c0,34.3,27.8,62,62,62c0,0,0,0,0,0h227.1c34.3,0,62-27.8,62-62c0,0,0,0,0,0V245.5h3.9V169.2z"/>
<rect x="0.2" y="682.9" class="st0" width="718" height="2"/>
<path class="st1" d="M501.9,62.5v587.2c0,25.6-20.7,46.3-46.2,46.3c0,0-0.1,0-0.1,0H227.4c-25.6,0-46.3-20.7-46.3-46.3
	c0,0,0,0,0-0.1V62.5c0-25.6,20.7-46.3,46.3-46.3c0,0,0,0,0.1,0h27.7c-4.6,11.3,0.8,24.1,12.1,28.7c2.6,1.1,5.5,1.6,8.3,1.6h130.1
	c12.2,0,22-9.9,22-22c0-2.9-0.6-5.7-1.6-8.3h29.6C481.2,16.1,501.9,36.8,501.9,62.5C501.9,62.4,501.9,62.4,501.9,62.5L501.9,62.5z"
	/>
<path class="st0" d="M71.6,684.8l-1.1-0.4c-0.2-0.1-23.7-9.1-34.7-29.5c-11-20.4-5.6-44.9-5.6-45.2l0.3-1.1l1.1,0.4
	c0.2,0.1,23.7,9.1,34.7,29.5c11,20.4,5.6,44.9,5.6,45.2L71.6,684.8z M37.5,653.9c9.3,17.2,27.8,26.1,32.5,28.1
	c0.9-5,3.7-25.4-5.6-42.6c-9.3-17.2-27.8-26.1-32.5-28.1C31.1,616.3,28.3,636.7,37.5,653.9z"/>
<path class="st2" d="M44.2,647.7c19.8,11.9,27.4,35.5,27.4,35.5s-24.4,4.3-44.2-7.5S0,640.2,0,640.2S24.4,635.8,44.2,647.7z"/>
<path class="st0" d="M238.6,16.1V696h-11.2c-2.9,0-5.9-0.3-8.8-0.8V17c2.9-0.6,5.8-0.8,8.8-0.8L238.6,16.1z"/>
<rect x="326.6" y="46.5" class="st0" width="20" height="649.5"/>
<path class="st0" d="M471.6,19v674.1c-5.1,1.9-10.6,2.9-16.1,2.9h-3.9V16.1h3.9C461.1,16.1,466.5,17.1,471.6,19z"/>
<rect x="181.1" y="129.3" class="st0" width="320.8" height="20"/>
<rect x="181.1" y="356.3" class="st0" width="320.8" height="20"/>
<rect x="330.6" y="468.3" class="st0" width="161" height="20"/>
<rect x="326.6" y="214.3" class="st0" width="175.3" height="20"/>
<polygon class="st0" points="341.1,148 338.8,149.3 326.6,156.3 238.6,207.2 218.6,218.7 181.1,240.4 181.1,217.3 218.6,195.6 
	238.6,184.1 298.8,149.3 326.6,133.3 331.1,130.7 "/>
<rect x="181.1" y="575.3" class="st0" width="320.8" height="20"/>
<path class="st2" d="M571.6,215.3c0,63.5-115,205-115,205s-115-141.5-115-205s51.5-115,115-115S571.6,151.8,571.6,215.3z"/>
<circle class="st1" cx="456.6" cy="210.3" r="68"/>
<circle class="st2" cx="454.4" cy="211.9" r="25.3"/>
<path class="st2" d="M494,285.3c4-20.6-9.5-40.5-30.1-44.5c-20.6-4-40.5,9.5-44.5,30.1c-0.9,4.7-0.9,9.6,0,14.4H494z"/>
<path class="st3" d="M576.5,122.8c0,0-18.1-6.5-29.7,19.4s-29.7,54.2-29.7,54.2l10.3,2.6c0,0,2.6-18.1,9-20.6l-2.6,23.2
	c0,0,77.4,27.1,112.3-2.6l-1.3-9c0,0,5.2,1.3,5.2,9l3.9-3.9c0,0-3.9-7.7-15.5-18.1c-7.6-6.8-10.2-19.7-11.1-27.7
	c-0.7-6.7-3.4-13.1-7.7-18.3C611.8,122,597.8,112.5,576.5,122.8z"/>
<path class="st4" d="M686.1,268.8c0,0,34,29,39,46s-19,19-19,19l-52,5c0,0-1,24-10,27s-1.8-39.7-1.8-39.7l50.8-14.3l-23-24
	L686.1,268.8z"/>
<path class="st4" d="M527.1,298.8l-4,53l-22,90c0,0-20,41-3,42s16-39,16-39l32-85l3-58L527.1,298.8z"/>
<polygon class="st4" points="545.1,682.8 545.1,721.8 569.1,715.8 562.1,679.8 "/>
<polygon class="st4" points="673.1,682.8 673.1,721.8 697.1,715.8 690.1,679.8 "/>
<circle class="st4" cx="583.1" cy="172.8" r="33"/>
<path class="st4" d="M568.1,188.8c0,0,12,43-7,54s48,19,66-14c0,0-32-11-23-40H568.1z"/>
<path class="st5" d="M545.1,247.8l-6-2c0,0-12,5-12,14c0,9-2,45-2,45l27,3L545.1,247.8z"/>
<path class="st3" d="M549.1,354.8c0,0-33,42.1-33,93.1s8,236,8,236s30,14,48-3l16-210l63,217c0,0,30,6,44-4l-27-140
	c0,0-1-166-31-178S549.1,354.8,549.1,354.8z"/>
<path class="st3" d="M571.1,709.8c0,0-26-14-28,5s-3,31-3,31s-3,23,25,18s18-19,18-19s-10-16-10-20S571.1,709.8,571.1,709.8z"/>
<path class="st3" d="M670.6,709.4c0,0,23.7-17.7,28.4,0.8s7.5,30.2,7.5,30.2s6.3,22.3-22.1,21.5s-20.6-16.2-20.6-16.2
	s7.5-17.3,7-21.3S670.6,709.4,670.6,709.4z"/>
<path class="st5" d="M641.1,233.8c0,0,13-7,26,8l26,30l-20,22l-38-23L641.1,233.8z"/>
<path class="st3" d="M547.5,173.1c11.7-8.5,21.1-18.2,27.4-29.8c0,0,21.4,23.8,34.5,25s1.2-28.6,1.2-28.6l-23.8-6l-22.6,2.4
	L546.3,148L547.5,173.1z"/>
<path class="st5" d="M622.1,226.8c0,0-14,22.1-56,11.6l-23.8,6.6l-3.2,0.9c0,0,3,60,11,71s6,17,4,18s-7-1-4,4s7,2,3,5s-6,14-6,14
	l94,12c0,0-3-39,5-59s10-28,10-28l-6-50L622.1,226.8z"/>
<circle class="st2" cx="466.6" cy="472.3" r="31"/>
</svg>
