<svg xmlns="http://www.w3.org/2000/svg" viewBox="0 0 48 44.04"><defs><style>.cls-1{fill:#fff;}</style></defs><title>telegramAsset 1</title><g id="Layer_2" data-name="Layer 2"><g id="Layer_1-2" data-name="Layer 1"><path class="cls-1" d="M44.31,0a5.35,5.35,0,0,0-1.79.44c-.5.2-2.41,1-5.41,2.31L25.86,7.57,2.91,17.45a5.49,5.49,0,0,0-1.5.82A3.81,3.81,0,0,0,0,21.13a3.75,3.75,0,0,0,1.07,2.56,5,5,0,0,0,1.76,1.1L12,28.54c.4,1.23,2.59,7.94,3.1,9.58a7.25,7.25,0,0,0,1.07,2.31,2.75,2.75,0,0,0,.75.69,1.59,1.59,0,0,0,.37.18h0l.09,0,.17,0a2.88,2.88,0,0,0,.88.16,3,3,0,0,0,1.89-.64l0,0,6-5.2,7.3,6.9A3.84,3.84,0,0,0,36.86,44a4,4,0,0,0,2.89-1.31A4.32,4.32,0,0,0,41,40.47h0c.16-.84,6.88-35.38,6.88-35.38v0a5.33,5.33,0,0,0,0-2.57,3.49,3.49,0,0,0-1.5-2A3.7,3.7,0,0,0,44.31,0Zm-.38,4.18c0,.06,0,0,0,.1v0S37.27,38.43,37,39.73c0-.1-.07.09-.15.21a3.49,3.49,0,0,0-.36-.19l0,0-10-9.43-7,6.09,2.1-8.4S34.66,14.4,35.45,13.61c.64-.63.77-.85.77-1.07a.45.45,0,0,0-.49-.5,2.19,2.19,0,0,0-.94.43C31.93,14.3,19.34,21.63,13.7,24.91L4.47,21.14l0,0,22.94-9.87L38.68,6.42Z"/></g></g></svg>